<svg width="40" height="41" viewBox="0 0 40 41" fill="none" xmlns="http://www.w3.org/2000/svg">
<g clip-path="url(#clip0_155_214)">
<path d="M39.9742 15.3098C39.9633 15.1128 39.8828 14.926 39.7472 14.7828C39.6115 14.6395 39.4294 14.549 39.2333 14.5274C39.0372 14.5058 38.8398 14.5545 38.6762 14.6648C38.5126 14.7751 38.3935 14.9399 38.34 15.1298C38.0067 16.2964 37.1983 16.9456 36.5133 16.4873C34.8562 14.1747 32.6061 12.3519 30 11.2106C29.7988 11.119 29.5694 11.1111 29.3623 11.1886C29.1552 11.2661 28.9874 11.4227 28.8958 11.6239C28.8042 11.8252 28.7963 12.0546 28.8738 12.2616C28.9513 12.4687 29.1079 12.6365 29.3092 12.7281C31.6822 13.7605 33.7256 15.4257 35.2158 17.5414C35.2616 17.611 35.3178 17.6731 35.3825 17.7256C35.6828 17.9728 36.0356 18.1481 36.414 18.2381C36.7924 18.3281 37.1864 18.3304 37.5658 18.2448C37.3865 18.4925 37.1462 18.6897 36.8683 18.8173C36.6715 18.8996 36.5137 19.0543 36.4275 19.2495C36.3413 19.4447 36.3332 19.6655 36.405 19.8664C36.7656 20.8683 36.9506 21.925 36.9517 22.9898C36.903 24.5924 36.4911 26.163 35.7471 27.5833C35.0031 29.0036 33.9464 30.2364 32.6567 31.1889C32.635 31.2073 32.6133 31.2264 32.5925 31.2464C31.7837 32.0234 31.1544 32.9677 30.7483 34.0131C30.3575 35.0181 30.1231 36.0771 30.0533 37.1531C30.0287 37.7804 30.0488 38.4087 30.1133 39.0331H26.13C26.3739 38.2979 26.4766 37.5231 26.4325 36.7498C26.3738 36.2621 26.2233 35.7899 25.9892 35.3581C25.8635 35.1152 25.663 34.9193 25.4173 34.7992C25.1716 34.6791 24.8938 34.6413 24.625 34.6914C22.8849 34.9931 21.1134 35.0718 19.3533 34.9256C19.2255 34.9157 19.097 34.9351 18.9779 34.9825C18.8587 35.0299 18.752 35.1039 18.6658 35.1989C18.1509 35.7573 17.7596 36.4181 17.5175 37.1381C17.3441 37.7559 17.244 38.3919 17.2192 39.0331H13.7325C13.8477 38.5991 13.9239 38.1557 13.96 37.7081L13.965 37.6098C14.0317 36.7122 13.8467 35.8138 13.4308 35.0156C12.8025 33.8852 11.8715 32.9522 10.7425 32.3214C10.4325 32.1251 10.1353 31.9094 9.8525 31.6756C8.6775 30.6481 7.35916 29.4364 7.14416 29.2031C5.71699 27.6305 3.78389 26.6076 1.68083 26.3123V20.1998H2.15583C3.955 20.1998 5.15083 19.8223 5.81166 19.0464C6.04916 18.7664 6.4625 18.2081 6.70166 17.8564C7.17695 17.1081 7.73338 16.4144 8.36083 15.7881C8.43908 15.7086 8.50057 15.6142 8.54167 15.5105C8.58276 15.4068 8.60261 15.2959 8.60004 15.1844C8.59748 15.0728 8.57255 14.963 8.52674 14.8613C8.48092 14.7596 8.41515 14.6681 8.33333 14.5923C8.01673 14.2969 7.72955 13.9715 7.47583 13.6206C7.13424 13.119 6.86205 12.5735 6.66666 11.9989C6.98166 12.0131 7.31916 12.0373 7.61416 12.0823C8.68741 12.2196 9.70356 12.6446 10.555 13.3123C10.6854 13.4254 10.8478 13.4952 11.0196 13.5121C11.1914 13.5289 11.3642 13.492 11.5142 13.4064C12.5963 12.7841 13.7417 12.2788 14.9308 11.8989C15.1415 11.8319 15.3168 11.6839 15.4183 11.4875C15.5198 11.2911 15.5392 11.0625 15.4721 10.8519C15.405 10.6412 15.257 10.4659 15.0606 10.3644C14.8643 10.2629 14.6356 10.2435 14.425 10.3106C13.3014 10.668 12.2134 11.1289 11.175 11.6873C10.1744 11.0197 9.03408 10.5904 7.84166 10.4323C7.07108 10.3437 6.29556 10.3053 5.52 10.3173C5.3968 10.3198 5.27571 10.3496 5.16542 10.4046C5.05514 10.4596 4.95842 10.5383 4.88223 10.6351C4.80603 10.732 4.75226 10.8445 4.72478 10.9646C4.69731 11.0847 4.69681 11.2094 4.72333 11.3298C4.99258 12.4957 5.4672 13.6044 6.125 14.6039C6.28 14.8164 6.4425 15.0206 6.61166 15.2139C6.12975 15.7555 5.69353 16.3361 5.3075 16.9498C5.11333 17.2348 4.73666 17.7431 4.5425 17.9714C4.39666 18.1423 3.87583 18.5389 2.15583 18.5389H1.245C0.919127 18.5394 0.606693 18.6688 0.376034 18.899C0.145375 19.1292 0.0152649 19.4414 0.0141635 19.7673V26.4389C0.0133777 26.811 0.149237 27.1704 0.395949 27.4489C0.642662 27.7274 0.983051 27.9057 1.3525 27.9498C3.11004 28.1714 4.72964 29.0165 5.91666 30.3314C6.22583 30.6648 7.69583 32.0039 8.75 32.9248C9.08746 33.2094 9.44383 33.4708 9.81666 33.7073C10.6874 34.1822 11.4155 34.881 11.9258 35.7314C12.2241 36.2807 12.3542 36.9055 12.3 37.5281L12.295 37.6373C12.2325 38.1439 12.1331 38.6452 11.9975 39.1373C11.9532 39.3237 11.9517 39.5178 11.9931 39.7049C12.0345 39.892 12.1178 40.0673 12.2366 40.2176C12.3554 40.3679 12.5068 40.4894 12.6792 40.5729C12.8517 40.6564 13.0409 40.6998 13.2325 40.6998H17.3733C17.7469 40.7012 18.1075 40.5624 18.3836 40.3106C18.6596 40.0589 18.8312 39.7127 18.8642 39.3406C18.8901 38.7821 18.9665 38.227 19.0925 37.6823C19.2197 37.2992 19.4095 36.9399 19.6542 36.6189C21.3159 36.7245 22.9843 36.6445 24.6283 36.3806C24.7021 36.5502 24.7512 36.7296 24.7742 36.9131C24.7895 37.5422 24.6866 38.1686 24.4708 38.7598C24.3997 38.9831 24.3823 39.22 24.4201 39.4513C24.4579 39.6826 24.5497 39.9018 24.6882 40.0908C24.8267 40.2799 25.0079 40.4336 25.217 40.5394C25.4261 40.6453 25.6573 40.7002 25.8917 40.6998H30.2108C30.4271 40.6999 30.6411 40.6554 30.8395 40.5691C31.0378 40.4829 31.2163 40.3567 31.3637 40.1985C31.5112 40.0402 31.6245 39.8533 31.6965 39.6494C31.7686 39.4454 31.7978 39.2289 31.7825 39.0131C31.7253 38.4383 31.7028 37.8606 31.715 37.2831C31.7733 36.3526 31.9775 35.437 32.32 34.5698C32.6361 33.7733 33.1192 33.0539 33.7367 32.4598C35.2127 31.3528 36.4188 29.9258 37.2643 28.2859C38.1098 26.646 38.5727 24.8359 38.6183 22.9914C38.6177 21.9679 38.4726 20.9495 38.1875 19.9664C38.834 19.3882 39.3334 18.6641 39.6441 17.8542C39.9548 17.0444 40.068 16.1721 39.9742 15.3098Z" fill="black"/>
<path d="M22.5041 14.0864C23.8279 14.0864 25.122 13.6939 26.2227 12.9584C27.3235 12.2229 28.1814 11.1776 28.688 9.95453C29.1946 8.73148 29.3271 7.38568 29.0688 6.0873C28.8106 4.78892 28.1731 3.59628 27.237 2.6602C26.3009 1.72412 25.1083 1.08664 23.8099 0.828378C22.5115 0.570114 21.1657 0.702664 19.9427 1.20927C18.7196 1.71587 17.6743 2.57377 16.9388 3.67448C16.2033 4.7752 15.8108 6.06928 15.8108 7.3931C15.8128 9.16767 16.5186 10.869 17.7734 12.1238C19.0282 13.3786 20.7296 14.0844 22.5041 14.0864ZM22.5041 2.36643C23.4983 2.36643 24.4702 2.66124 25.2968 3.21358C26.1234 3.76592 26.7677 4.55098 27.1482 5.46948C27.5286 6.38798 27.6282 7.39868 27.4342 8.37375C27.2402 9.34883 26.7615 10.2445 26.0585 10.9475C25.3555 11.6505 24.4599 12.1292 23.4848 12.3232C22.5097 12.5171 21.499 12.4176 20.5805 12.0371C19.662 11.6567 18.8769 11.0124 18.3246 10.1858C17.7723 9.35914 17.4775 8.38728 17.4775 7.3931C17.479 6.06042 18.0091 4.78276 18.9514 3.84042C19.8938 2.89807 21.1714 2.36798 22.5041 2.36643Z" fill="black"/>
<path d="M21.8167 8.22644H23.03C23.1232 8.2309 23.2112 8.27109 23.2756 8.33866C23.34 8.40623 23.3759 8.496 23.3759 8.58935C23.3759 8.6827 23.34 8.77247 23.2756 8.84004C23.2112 8.90761 23.1232 8.9478 23.03 8.95227H21.8167C21.7609 8.95253 21.7059 8.93987 21.6559 8.91529C21.6058 8.89072 21.5622 8.85488 21.5283 8.8106C21.463 8.72052 21.3803 8.64443 21.2851 8.58683C21.1898 8.52923 21.0841 8.49128 20.9739 8.47523C20.8638 8.45918 20.7516 8.46534 20.6439 8.49336C20.5362 8.52138 20.4352 8.57068 20.3469 8.63837C20.2585 8.70605 20.1847 8.79074 20.1296 8.88744C20.0745 8.98414 20.0394 9.09089 20.0262 9.20139C20.0131 9.31189 20.0222 9.42391 20.053 9.53083C20.0839 9.63775 20.1358 9.73742 20.2058 9.82394C20.372 10.0396 20.5805 10.2191 20.8185 10.3513C21.0566 10.4836 21.3191 10.5659 21.59 10.5931V11.1998C21.59 11.4208 21.6778 11.6327 21.8341 11.789C21.9903 11.9453 22.2023 12.0331 22.4233 12.0331C22.6443 12.0331 22.8563 11.9453 23.0126 11.789C23.1689 11.6327 23.2567 11.4208 23.2567 11.1998V10.6006C23.7726 10.545 24.2474 10.2934 24.5832 9.8978C24.919 9.50216 25.0899 8.99268 25.0609 8.4746C25.0318 7.95651 24.8048 7.46938 24.4269 7.11381C24.0489 6.75825 23.5489 6.5614 23.03 6.56394H21.8167C21.7234 6.55947 21.6355 6.51928 21.5711 6.45171C21.5066 6.38414 21.4707 6.29437 21.4707 6.20102C21.4707 6.10767 21.5066 6.0179 21.5711 5.95033C21.6355 5.88276 21.7234 5.84257 21.8167 5.8381H23.03C23.0872 5.83813 23.1435 5.85165 23.1945 5.87757C23.2455 5.90349 23.2896 5.94108 23.3233 5.98727C23.455 6.16541 23.6521 6.28392 23.8712 6.31674C24.0904 6.34956 24.3135 6.29399 24.4917 6.16227C24.6698 6.03054 24.7883 5.83345 24.8211 5.61435C24.8539 5.39524 24.7984 5.17207 24.6667 4.99394C24.4994 4.77108 24.2881 4.58509 24.0458 4.44759C23.8035 4.31008 23.5354 4.22402 23.2583 4.19477V3.5906C23.2583 3.36959 23.1705 3.15763 23.0142 3.00135C22.858 2.84507 22.646 2.75727 22.425 2.75727C22.204 2.75727 21.992 2.84507 21.8357 3.00135C21.6795 3.15763 21.5917 3.36959 21.5917 3.5906V4.1906C21.0773 4.24803 20.6045 4.5003 20.2704 4.89555C19.9363 5.29081 19.7662 5.79904 19.7953 6.31577C19.8243 6.83251 20.0501 7.3185 20.4264 7.67387C20.8027 8.02923 21.3008 8.22696 21.8183 8.22644H21.8167ZM8.48999 17.8073V18.9814C8.48999 19.2024 8.57779 19.4144 8.73407 19.5707C8.89035 19.727 9.10231 19.8148 9.32332 19.8148C9.54434 19.8148 9.7563 19.727 9.91258 19.5707C10.0689 19.4144 10.1567 19.2024 10.1567 18.9814V17.8073C10.1567 17.5863 10.0689 17.3743 9.91258 17.218C9.7563 17.0617 9.54434 16.9739 9.32332 16.9739C9.10231 16.9739 8.89035 17.0617 8.73407 17.218C8.57779 17.3743 8.48999 17.5863 8.48999 17.8073Z" fill="black"/>
</g>
<defs>
<clipPath id="clip0_155_214">
<rect width="40" height="40" fill="white" transform="translate(0 0.699768)"/>
</clipPath>
</defs>
</svg>
