<svg width="71" height="70" viewBox="0 0 71 70" fill="none" xmlns="http://www.w3.org/2000/svg">
<circle cx="35.0523" cy="35" r="33.4805" stroke="#E7A80C" stroke-width="3"/>
<path d="M33.2931 18.0095H37.091V22.407C37.8906 22.5403 38.7301 22.7402 39.6096 23.0067C40.5158 23.2732 41.3819 23.6597 42.2081 24.166L40.649 28.4037C39.9561 28.0039 39.1032 27.6574 38.0904 27.3643C37.0777 27.0444 36.1049 26.8845 35.1721 26.8845C34.3192 26.8845 33.6129 27.0711 33.0532 27.4442C32.4936 27.7907 32.2137 28.2837 32.2137 28.9234C32.2137 29.5364 32.4536 30.0428 32.9333 30.4425C33.413 30.8157 34.2926 31.2154 35.5718 31.6419L37.4108 32.2415C39.4097 32.9078 40.9422 33.854 42.0083 35.08C43.0743 36.306 43.6074 37.8251 43.6074 39.6374C43.6074 40.4903 43.4608 41.3032 43.1676 42.0761C42.9011 42.849 42.4747 43.5553 41.8883 44.1949C41.302 44.8345 40.5557 45.3809 39.6496 45.834C38.7701 46.2604 37.7173 46.5536 36.4913 46.7135V51.3509H32.6934V46.7935C30.2415 46.5536 28.0693 45.794 26.1771 44.5147L28.136 40.397C29.0688 41.0367 30.0283 41.5164 31.0144 41.8362C32.0005 42.1294 32.9733 42.276 33.9328 42.276C35.292 42.276 36.2115 42.0494 36.6912 41.5963C37.1976 41.1166 37.4508 40.5969 37.4508 40.0372C37.4508 39.4775 37.2376 38.9845 36.8112 38.558C36.4114 38.1316 35.6118 37.7185 34.4125 37.3187L32.3736 36.6391C31.5208 36.3726 30.7079 36.0261 29.935 35.5997C29.1887 35.1733 28.5224 34.6669 27.9361 34.0805C27.3497 33.4942 26.8833 32.8279 26.5369 32.0816C26.217 31.3087 26.0571 30.4292 26.0571 29.4431C26.0571 28.457 26.2437 27.5508 26.6168 26.7246C26.9899 25.8718 27.4963 25.1388 28.136 24.5258C28.7756 23.9128 29.5352 23.4331 30.4147 23.0866C31.2942 22.7135 32.2537 22.5003 33.2931 22.447V18.0095Z" fill="#352902"/>
</svg>
