<svg width="88" height="75" viewBox="0 0 88 75" fill="none" xmlns="http://www.w3.org/2000/svg">
<g opacity="0.82" clip-path="url(#clip0_112_15)">
<path d="M21.534 15.617C21.4632 15.9008 21.3925 16.1847 21.3196 16.4771C21.2286 16.8537 21.1376 17.2302 21.0439 17.6181C20.953 17.9896 20.862 18.361 20.7683 18.7437C20.5633 19.8151 20.4729 20.7381 20.5539 21.8245C23.2886 25.7313 30.224 26.9516 34.6755 27.7418C44.8834 29.4269 57.6663 28.9506 66.641 23.1518C67.5779 22.3617 67.5952 22.1853 67.8049 20.8852C67.6651 19.5339 67.2966 18.2338 66.9473 16.9238C66.9473 16.4926 66.9473 16.0613 66.9473 15.617C71.2435 15.8392 75.8452 17.5752 79.0612 20.4768C80.2789 21.8879 80.6169 23.1327 80.4893 24.987C80.0751 27.1268 78.3839 28.3945 76.7487 29.6657C75.9233 30.2087 75.0721 30.6794 74.1963 31.1359C73.9609 31.2601 73.7255 31.3843 73.4829 31.5123C70.8672 32.8451 68.1203 33.7294 65.3137 34.5664C65.3091 34.8587 65.3045 35.151 65.2997 35.4521C65.1688 38.7699 64.5456 41.1571 62.3324 43.6736C60.2885 45.545 57.5393 46.2848 54.8053 46.1673C52.5124 45.7568 50.3284 44.6732 48.8146 42.8772C47.678 41.152 47.2257 39.1543 46.691 37.1801C44.9659 37.1801 43.2409 37.1801 41.4636 37.1801C41.3962 37.5979 41.3288 38.0157 41.2594 38.4461C40.6344 41.2021 39.2234 43.413 36.864 44.983C34.6382 46.2769 32.1297 46.3142 29.624 45.8725C27.4618 45.2009 25.5571 43.5747 24.3366 41.6903C23.4116 39.8738 23.1286 38.4841 23.1471 36.4654C23.1501 36.0498 23.153 35.6341 23.1561 35.2058C23.1599 34.887 23.1637 34.5682 23.1676 34.2397C22.9675 34.2065 22.7674 34.1733 22.5613 34.1391C20.5278 33.7716 18.7103 33.2025 16.8171 32.3815C16.5481 32.2657 16.2791 32.1499 16.0019 32.0305C12.5384 30.5041 9.56202 28.9185 7.81199 25.4184C7.65339 23.3566 7.99085 22.1706 9.28221 20.5598C12.1359 17.6083 17.4231 15.5235 21.534 15.617Z" fill="black"/>
<path d="M42.483 4.50739C44.0019 5.03705 45.2924 4.82167 46.7403 4.2133C47.4654 3.84882 48.1709 3.46131 48.8757 3.05887C51.6002 1.54204 54.2723 0.0694196 57.5145 0.729757C58.887 1.25445 59.5923 2.02013 60.4128 3.20181C61.5233 5.98963 62.2152 8.97757 62.9652 11.8802C63.0368 12.152 63.1084 12.4239 63.1821 12.704C63.573 14.2656 63.7555 15.6411 63.6799 17.2505C53.5606 22.7254 41.4606 23.1185 30.5044 20.0059C28.3734 19.355 26.07 18.5196 24.4742 16.9238C24.6006 15.1253 24.976 13.423 25.4301 11.6823C25.4918 11.4434 25.5535 11.2044 25.6171 10.9581C25.7471 10.4574 25.8781 9.95693 26.01 9.45668C26.21 8.69428 26.4036 7.93045 26.5972 7.16641C26.7251 6.67731 26.8533 6.18829 26.982 5.69939C27.0385 5.47304 27.0951 5.24669 27.1533 5.01348C27.59 3.39568 28.2064 2.11258 29.6442 1.18282C34.0336 -0.455165 38.7241 2.32423 42.483 4.50739Z" fill="black"/>
<path d="M71.6848 50.1876C71.9443 50.183 72.2037 50.1784 72.471 50.1736C73.1551 50.2489 73.1551 50.2489 73.8085 50.9023C73.8915 51.6215 73.8915 51.6215 73.893 52.5257C73.8951 52.8637 73.8972 53.2017 73.8993 53.5499C73.898 53.9161 73.8966 54.2823 73.8953 54.6596C73.8962 55.2215 73.8962 55.2215 73.8972 55.7948C73.8976 56.5879 73.8964 57.3811 73.8937 58.1743C73.8902 59.3919 73.8937 60.6093 73.8978 61.8269C73.8974 62.596 73.8966 63.3652 73.8953 64.1343C73.8966 64.5005 73.8979 64.8667 73.8993 65.244C73.8972 65.582 73.8952 65.9199 73.893 66.2682C73.8925 66.5666 73.892 66.8649 73.8915 67.1724C73.8085 67.8915 73.8085 67.8915 73.1551 68.545C72.3995 68.6203 72.3995 68.6203 71.5215 68.6062C71.0869 68.6031 71.0869 68.6031 70.6434 68.5998C69.8879 68.545 69.8879 68.545 69.2345 68.2183C68.911 68.38 68.911 68.38 68.5811 68.545C66.7216 68.7923 65.1173 68.8261 63.5374 67.7282C62.0757 66.4436 61.2395 65.1021 60.9441 63.1695C60.8483 61.2179 61.1885 59.661 62.3735 58.0901C63.4259 56.9312 64.3697 56.2146 65.9444 55.9983C66.8405 55.9879 67.6935 56.0065 68.5811 56.1298C68.6889 56.2376 68.7967 56.3454 68.9078 56.4565C68.9375 55.9429 68.9375 55.9429 68.9678 55.4189C68.9953 54.9684 69.023 54.5179 69.0507 54.0674C69.0636 53.8419 69.0764 53.6163 69.0896 53.384C69.1526 52.3818 69.2421 51.533 69.5612 50.5756C70.3301 50.1912 70.8291 50.1946 71.6848 50.1876ZM66.2328 60.7446C65.5489 61.3362 65.5489 61.3362 65.4773 62.3374C65.5548 63.3306 65.5548 63.3306 66.1919 63.9505C67.1535 64.3923 67.5961 64.3338 68.5811 63.9709C69.3392 63.0478 69.3392 63.0478 69.1732 61.9902C68.9935 60.9333 68.9935 60.9333 67.9276 60.3771C66.9588 60.3024 66.9588 60.3024 66.2328 60.7446Z" fill="black"/>
<path d="M44.7308 52.2089C45.6089 52.8419 45.6089 52.8419 46.0377 53.5158C46.0682 54.7042 45.7111 55.1492 44.9759 56.0887C44.0774 56.7829 44.0774 56.7829 43.2402 56.7625C42.4438 56.4562 42.4438 56.4562 41.8516 56.1091C40.7505 55.6372 39.6887 55.6209 38.5232 55.8028C37.0976 56.529 36.205 57.2567 35.5828 58.7432C35.3972 60.4442 35.6192 61.5586 36.5629 62.9905C37.8092 64.1235 39.0803 64.1121 40.6916 64.0715C41.6665 63.9442 42.284 63.5249 43.0973 62.9905C43.9345 62.9497 43.9345 62.9497 44.7308 63.3172C45.3441 64.0208 45.7442 64.7182 46.0377 65.6042C45.9356 66.4823 45.9356 66.4823 45.3843 67.2378C43.0775 68.9463 40.6779 69.1193 37.8698 68.8714C35.4596 68.2472 33.2454 66.691 31.8741 64.6062C30.5975 62.1724 30.3592 59.8101 31.0292 57.1301C31.8486 54.634 33.3276 53.0984 35.6441 51.9026C38.8338 50.4207 41.6085 50.5806 44.7308 52.2089Z" fill="black"/>
<path d="M13.6927 51.8826C14.1678 52.0948 14.1678 52.0948 14.6524 52.3114C15.3263 52.8627 15.3263 52.8627 15.6938 53.7816C15.6523 54.8415 15.5721 55.1209 14.9791 55.9461C14.0194 56.7833 14.0194 56.7833 13.0189 56.7833C12.0591 56.4566 12.0591 56.4566 11.4261 56.1094C10.4009 55.6434 9.57815 55.7072 8.46526 55.8031C7.12672 56.318 6.18936 56.796 5.52482 58.0901C5.08742 60.0272 5.13831 60.917 6.17825 62.6641C6.17825 62.8798 6.17825 63.0954 6.17825 63.3176C7.81806 63.9903 9.32764 64.1946 11.079 63.971C11.4294 63.7958 11.7798 63.6206 12.1408 63.4401C13.0393 62.9908 13.0393 62.9908 13.9173 63.1542C14.8557 63.7629 15.2214 64.2469 15.653 65.2778C15.7143 66.0946 15.7143 66.0946 15.3263 66.9114C12.9079 68.8681 10.5314 69.1406 7.48511 68.8717C5.03997 68.2385 2.94719 66.6891 1.47789 64.6487C0.17079 62.2133 0.220698 59.1915 0.828291 56.5485C1.68409 54.3173 3.2954 52.8321 5.40996 51.7779C8.3872 50.5854 10.7904 50.5168 13.6927 51.8826Z" fill="black"/>
<path d="M84.6783 56.0262C86.0543 56.7487 86.8859 57.6773 87.5307 59.0701C87.7308 60.5074 87.8547 61.7951 87.093 63.0698C85.9803 64.2479 84.4152 64.0736 82.8954 64.1546C82.6505 64.1687 82.4056 64.1828 82.1533 64.1973C81.5499 64.2319 80.9465 64.2649 80.343 64.2975C80.6742 64.7008 80.6742 64.7008 81.3588 64.6676C81.7859 64.6664 81.7859 64.6664 82.2216 64.6651C82.6651 64.6638 82.6651 64.6638 83.1175 64.6625C83.9662 64.6512 83.9662 64.6512 84.8761 64.3792C85.5704 64.2975 85.5704 64.2975 86.3259 64.7876C87.0527 65.8642 86.9751 66.6195 86.8773 67.8914C85.2465 68.8626 84.0039 69.0324 82.1603 69.0145C81.805 69.0243 81.805 69.0243 81.4424 69.0343C79.6268 69.0326 78.5737 68.5902 77.0758 67.5647C75.1865 65.5222 74.9489 63.9359 74.9917 61.1912C75.1644 59.5997 75.6413 58.5818 76.7491 57.4365C79.0422 55.6478 81.8533 55.1753 84.6783 56.0262ZM80.4042 60.5199C80.1684 60.7961 79.9325 61.0724 79.6895 61.3571C80.7677 61.3571 81.8459 61.3571 82.9567 61.3571C82.9567 60.9258 82.9567 60.4945 82.9567 60.0502C81.6884 59.5791 81.4626 59.6026 80.4042 60.5199Z" fill="black"/>
<path d="M18.9001 55.5377C20.2885 55.9061 20.6241 56.6474 21.3415 57.8451C21.5129 58.1416 21.6843 58.4381 21.8609 58.7436C22.4 59.6061 22.9391 60.4687 23.4945 61.3573C24.4648 59.5245 25.4352 57.6916 26.4349 55.8032C28.935 55.8032 28.935 55.8032 29.7021 56.4566C30.2923 58.5767 29.7072 59.8653 28.8087 61.7568C28.6157 62.1801 28.6157 62.1801 28.4188 62.6119C28.0078 63.5099 27.5891 64.404 27.1701 65.2983C26.893 65.9007 26.6165 66.5033 26.3405 67.1061C23.3721 73.5682 23.3721 73.5682 22.8411 74.0992C21.6797 74.1869 20.8254 74.2245 19.7577 73.7317C19.0258 72.8535 19.1575 72.2822 19.2472 71.1588C19.6257 70.2144 20.0838 69.3426 20.5553 68.4417C20.9442 67.3941 20.8534 66.9955 20.5541 65.9314C20.131 65.0936 20.131 65.0936 19.593 64.2569C19.3072 63.7895 19.3072 63.7895 19.0156 63.3125C18.6115 62.6619 18.2065 62.0119 17.8006 61.3624C17.6104 61.0508 17.4203 60.7391 17.2244 60.418C17.0485 60.1358 16.8726 59.8537 16.6914 59.5629C16.2639 58.6523 16.175 58.1034 16.3067 57.11C17.1255 56.219 17.7353 55.8599 18.9001 55.5377Z" fill="black"/>
<path d="M56.2983 56.1143C58.1215 57.1892 59.5194 58.6256 60.0861 60.7036C60.354 63.1946 59.8079 64.9172 58.3709 66.9929C56.8458 68.5179 55.5286 68.9235 53.4293 69.0349C51.5183 68.9719 50.1272 68.4562 48.6511 67.238C47.2728 65.7509 46.754 64.1669 46.6461 62.1598C46.7557 60.1907 47.5662 58.4832 48.9778 57.1098C51.0839 55.5544 53.8402 55.1407 56.2983 56.1143ZM51.9999 60.7445C51.1539 61.6217 51.1539 61.6217 51.2852 62.7252C51.5261 63.676 51.5261 63.676 52.2449 64.2975C53.7682 64.4491 53.7682 64.4491 55.165 63.93C55.6917 63.0005 55.6833 62.4054 55.5121 61.3571C54.7917 60.552 54.7917 60.552 53.8785 60.0502C52.8384 59.9503 52.8384 59.9503 51.9999 60.7445Z" fill="black"/>
</g>
<defs>
<clipPath id="clip0_112_15">
<rect width="87.7368" height="73.9496" fill="white" transform="translate(0 0.205353)"/>
</clipPath>
</defs>
</svg>
