<svg width="40" height="40" viewBox="0 0 40 40" fill="none" xmlns="http://www.w3.org/2000/svg">
<g clip-path="url(#clip0_13_12)">
<path d="M15 19H1C0.4 19 0 19.4 0 20V34C0 34.6 0.4 35 1 35H15C15.6 35 16 34.6 16 34V20C16 19.4 15.6 19 15 19ZM14 33H2V21H14V33ZM15 -1H1C0.4 -1 0 -0.6 0 0V14C0 14.6 0.4 15 1 15H15C15.6 15 16 14.6 16 14V0C16 -0.6 15.6 -1 15 -1ZM14 13H2V1H14V13ZM35 -1H21C20.4 -1 20 -0.6 20 0V14C20 14.6 20.4 15 21 15H35C35.6 15 36 14.6 36 14V0C36 -0.6 35.6 -1 35 -1ZM34 13H22V1H34V13ZM35 26H29V20C29 19.4 28.6 19 28 19C27.4 19 27 19.4 27 20V26H21C20.4 26 20 26.4 20 27C20 27.6 20.4 28 21 28H27V34C27 34.6 27.4 35 28 35C28.6 35 29 34.6 29 34V28H35C35.6 28 36 27.6 36 27C36 26.4 35.6 26 35 26Z" fill="white"/>
</g>
<rect width="40" height="40" stroke="black"/>
<defs>
<clipPath id="clip0_13_12">
<rect width="40" height="40" fill="white"/>
</clipPath>
</defs>
</svg>
