<svg width="38" height="39" viewBox="0 0 38 39" fill="none" xmlns="http://www.w3.org/2000/svg">
<g clip-path="url(#clip0_155_197)">
<path d="M30.6385 0.902464C30.7847 0.903388 30.7847 0.903388 30.9339 0.904331C32.9427 0.939195 34.6322 1.77848 36.0703 3.1615C37.5711 4.75808 38.0817 6.69685 38.0284 8.82648C38.0009 9.44344 37.899 9.99902 37.7032 10.5834C37.6799 10.6542 37.6799 10.6542 37.6562 10.7265C37.297 11.7945 36.7052 12.6713 35.9219 13.4779C35.8608 13.5459 35.8608 13.5459 35.7984 13.6153C35.5271 13.908 35.2227 14.1364 34.8968 14.3639C34.854 14.3937 34.8113 14.4236 34.7672 14.4544C34.4567 14.6654 34.4567 14.6654 34.2891 14.6654C34.2892 14.7158 34.2893 14.7663 34.2894 14.8182C34.2961 17.8055 34.3012 20.7927 34.3043 23.78C34.3046 24.1385 34.305 24.497 34.3054 24.8555C34.3055 24.9269 34.3056 24.9983 34.3056 25.0718C34.3069 26.2282 34.3093 27.3846 34.312 28.541C34.3148 29.7272 34.3164 30.9133 34.317 32.0995C34.3174 32.8317 34.3187 33.5639 34.3211 34.2961C34.3227 34.7978 34.3232 35.2996 34.3228 35.8014C34.3226 36.0911 34.3229 36.3808 34.3245 36.6705C34.3262 36.9843 34.3256 37.2981 34.3248 37.6119C34.3257 37.7038 34.3265 37.7958 34.3274 37.8904C34.3268 37.9744 34.3262 38.0584 34.3256 38.1449C34.3257 38.2174 34.3258 38.2899 34.326 38.3645C34.2784 38.6218 34.1715 38.748 33.9922 38.9349C33.7174 39.0226 33.4392 38.9877 33.1783 38.8679C33.0297 38.7724 32.8923 38.6688 32.7537 38.5592C32.6439 38.4772 32.5341 38.3953 32.4241 38.3136C32.366 38.2699 32.3079 38.2262 32.248 38.1812C31.9176 37.9374 31.5769 37.7086 31.2368 37.4784C31.168 37.4315 31.0991 37.3847 31.0282 37.3364C30.46 36.9503 29.8893 36.5681 29.3164 36.1888C28.8722 36.4121 28.4726 36.68 28.0713 36.9728C27.5456 37.3535 27.003 37.7089 26.461 38.0659C26.3878 38.1142 26.3147 38.1626 26.2393 38.2125C26.1685 38.259 26.0977 38.3056 26.0248 38.3535C25.8466 38.4768 25.6845 38.6087 25.5191 38.7482C25.2607 38.9424 25.0589 39.0022 24.7358 38.9778C24.4052 38.8941 24.1603 38.6951 23.8938 38.4896C23.7642 38.3942 23.6344 38.299 23.5045 38.2041C23.4364 38.1538 23.3683 38.1036 23.2981 38.0518C22.9213 37.7798 22.5329 37.5254 22.1451 37.2697C21.6108 36.9167 21.0812 36.5588 20.5586 36.1888C20.0918 36.4357 19.6606 36.7114 19.232 37.0192C18.9571 37.2129 18.6817 37.406 18.4063 37.599C18.3651 37.6279 18.3239 37.6569 18.2815 37.6867C18.0159 37.8731 17.7493 38.0578 17.4814 38.2408C17.3935 38.3011 17.306 38.3619 17.2189 38.4233C16.4407 38.9703 16.4407 38.9703 16.0803 38.9944C15.7434 38.9207 15.537 38.7936 15.2659 38.587C15.1616 38.5115 15.0572 38.436 14.9528 38.3606C14.8716 38.301 14.8716 38.301 14.7887 38.2401C14.4493 37.9939 14.1005 37.7611 13.7536 37.5257C13.4396 37.3121 13.1287 37.0953 12.821 36.8728C12.7574 36.8274 12.6937 36.782 12.6282 36.7353C12.5057 36.6479 12.384 36.5594 12.2631 36.4698C11.9641 36.2424 11.9641 36.2424 11.6089 36.2138C11.5202 36.2749 11.5202 36.2749 11.4297 36.3373C11.3913 36.3627 11.3528 36.3881 11.3132 36.4143C11.1702 36.5107 11.031 36.6115 10.8916 36.713C10.3345 37.1127 9.77055 37.5017 9.20316 37.8866C9.12525 37.9395 9.04735 37.9924 8.96709 38.0469C8.81823 38.1479 8.66921 38.2486 8.52002 38.3491C8.38589 38.4399 8.25239 38.5317 8.11968 38.6246C8.06134 38.665 8.003 38.7054 7.94289 38.7471C7.86752 38.8001 7.86752 38.8001 7.79063 38.8542C7.52716 38.9998 7.3457 38.9849 7.05081 38.9349C6.8875 38.8332 6.8875 38.8332 6.75394 38.6381C6.70949 38.3738 6.71523 38.1118 6.71824 37.8444C6.71798 37.7626 6.71773 37.6809 6.71747 37.5966C6.71698 37.3216 6.71861 37.0466 6.72023 36.7716C6.72032 36.5749 6.72028 36.3782 6.7201 36.1814C6.71995 35.7574 6.72088 35.3333 6.72255 34.9093C6.72496 34.2962 6.72573 33.683 6.72611 33.0699C6.72676 32.0752 6.72873 31.0805 6.73154 30.0858C6.73427 29.1194 6.73637 28.1531 6.73763 27.1868C6.73775 27.0975 6.73775 27.0975 6.73786 27.0063C6.73825 26.7076 6.73863 26.4088 6.739 26.11C6.74208 23.6311 6.7473 21.1521 6.75394 18.6732C6.6748 18.6739 6.59566 18.6745 6.51412 18.6752C5.76825 18.6812 5.0224 18.6857 4.27652 18.6886C3.89305 18.6901 3.50961 18.6922 3.12615 18.6956C2.75609 18.6988 2.38604 18.7006 2.01596 18.7014C1.87478 18.7019 1.7336 18.703 1.59243 18.7046C1.39466 18.7068 1.19696 18.7071 0.999175 18.7069C0.940826 18.708 0.882476 18.7091 0.822358 18.7102C0.557124 18.7082 0.383357 18.6799 0.149238 18.552C-0.043891 18.3246 -0.04644 18.2035 -0.0465937 17.9071C-0.0475328 17.8105 -0.0484709 17.714 -0.0494385 17.6145C-0.0485986 17.5077 -0.0477207 17.4008 -0.0468088 17.2939C-0.0471902 17.1813 -0.0477295 17.0686 -0.048417 16.9559C-0.0497929 16.6498 -0.0488309 16.3437 -0.0473728 16.0376C-0.0461563 15.7167 -0.0468115 15.3958 -0.0471894 15.0749C-0.0475251 14.5353 -0.0463451 13.9957 -0.0442721 13.4562C-0.0419002 12.8341 -0.0418926 12.212 -0.0431758 11.5899C-0.0443579 10.9902 -0.0438481 10.3906 -0.0425847 9.79095C-0.0420771 9.53647 -0.0421498 9.28201 -0.0427002 9.02753C-0.0432734 8.72682 -0.0423536 8.42615 -0.0403355 8.12545C-0.0398289 8.01572 -0.0398148 7.90598 -0.0403537 7.79625C-0.0446369 6.80949 0.143286 6.03436 0.742218 5.23962C0.80651 5.14318 0.80651 5.14318 0.872101 5.0448C1.48849 4.39417 2.3968 3.92821 3.29889 3.8975C3.52804 3.89549 3.75706 3.89609 3.98621 3.89744C4.07431 3.89765 4.16241 3.89786 4.25319 3.89807C4.49714 3.89871 4.74109 3.89967 4.98504 3.90076C5.24838 3.90185 5.51172 3.90249 5.77506 3.90315C6.11353 3.90402 6.45199 3.90491 6.79046 3.90597C7.62953 3.90856 8.4686 3.90975 9.30767 3.9101C9.36839 3.91012 9.42911 3.91015 9.49167 3.91018C9.9916 3.9104 10.4915 3.91056 10.9915 3.91069C11.4415 3.91081 11.8916 3.91098 12.3416 3.91122C12.4058 3.91126 12.47 3.91129 12.5361 3.91133C13.5759 3.91196 14.6156 3.91526 15.6554 3.91947C16.7235 3.92373 17.7916 3.92489 18.8597 3.92323C19.5182 3.92231 20.1766 3.92384 20.8351 3.92852C21.2865 3.93151 21.7379 3.93149 22.1893 3.92913C22.4496 3.92786 22.7098 3.9279 22.9701 3.93153C24.0306 4.00688 24.0306 4.00688 24.9809 3.6494C25.1512 3.44339 25.2659 3.252 25.3828 3.01306C26.6733 1.56391 28.7579 0.88703 30.6385 0.902464ZM26.3477 3.90369C26.2862 3.96348 26.2247 4.02328 26.1613 4.08488C24.9938 5.28536 24.4589 6.85815 24.4766 8.51713C24.5652 10.1299 25.2161 11.5112 26.3477 12.6615C26.4324 12.7476 26.4324 12.7476 26.5187 12.8354C27.6953 13.9618 29.2804 14.4913 30.8974 14.461C32.5244 14.3528 33.8538 13.7121 35.0313 12.5873C35.101 12.5259 35.101 12.5259 35.1722 12.4632C36.2061 11.5182 36.7436 9.96718 36.8302 8.59657C36.873 7.052 36.4485 5.51805 35.4024 4.349C35.3585 4.29466 35.3145 4.24031 35.2693 4.18432C34.29 3.00513 32.8283 2.30575 31.3203 2.12244C29.4283 2.02325 27.7187 2.55878 26.3477 3.90369ZM1.70706 5.98181C1.355 6.51643 1.17802 6.96152 1.1786 7.60277C1.1785 7.68946 1.1784 7.77615 1.1783 7.86546C1.17856 7.9599 1.17883 8.05434 1.17911 8.15164C1.17913 8.2526 1.17911 8.35356 1.17907 8.45452C1.17905 8.72806 1.17949 9.0016 1.18001 9.27513C1.18047 9.5612 1.18051 9.84727 1.1806 10.1333C1.18083 10.6748 1.18144 11.2163 1.18219 11.7577C1.18317 12.4896 1.18357 13.2214 1.184 13.9533C1.1847 15.106 1.18618 16.2588 1.18753 17.4115C3.02445 17.4115 4.86136 17.4115 6.75394 17.4115C6.76259 15.641 6.76259 15.641 6.76843 13.8706C6.77019 13.1481 6.77225 12.4256 6.77633 11.7031C6.7793 11.1767 6.78121 10.6504 6.78187 10.1241C6.78225 9.84574 6.78315 9.56742 6.78533 9.28908C6.78736 9.02634 6.78796 8.76362 6.78752 8.50087C6.78763 8.36003 6.78922 8.21919 6.79087 8.07836C6.78731 7.32451 6.68616 6.49873 6.13236 5.94006C6.0739 5.88103 6.01544 5.822 5.95522 5.76118C5.3504 5.21337 4.78676 5.13851 3.98929 5.13757C3.90902 5.13575 3.82875 5.13394 3.74605 5.13206C2.93146 5.12912 2.2486 5.34982 1.70706 5.98181ZM7.12503 5.1654C7.32097 5.55728 7.51691 5.94915 7.71878 6.3529C7.83591 6.76284 7.88589 7.00176 7.88664 7.40928C7.88694 7.461 7.88724 7.51273 7.88754 7.56602C7.88835 7.73885 7.88812 7.91167 7.88789 8.0845C7.88826 8.20986 7.88869 8.33521 7.88919 8.46056C7.89036 8.80464 7.89062 9.14872 7.89072 9.4928C7.891 9.86399 7.89212 10.2352 7.89314 10.6064C7.89479 11.2494 7.89591 11.8923 7.89666 12.5353C7.89774 13.465 7.89964 14.3946 7.90173 15.3243C7.9051 16.8326 7.90782 18.3409 7.91013 19.8492C7.91237 21.3143 7.91492 22.7795 7.91788 24.2447C7.91806 24.335 7.91825 24.4253 7.91843 24.5184C7.91935 24.9714 7.92028 25.4245 7.92121 25.8776C7.92889 29.6363 7.93551 33.395 7.94144 37.1537C8.21838 37.0193 8.47044 36.8569 8.72537 36.6852C8.77317 36.6532 8.82097 36.6211 8.87022 36.5881C9.33486 36.276 9.79673 35.9598 10.258 35.6428C10.3698 35.5661 10.4817 35.4895 10.5938 35.4132C10.7096 35.3339 10.8248 35.2537 10.9395 35.1728C11.0263 35.1126 11.0263 35.1126 11.1149 35.0512C11.1922 34.9968 11.1922 34.9968 11.2712 34.9413C11.4525 34.8402 11.5943 34.7988 11.8008 34.7787C12.3055 34.9836 12.7321 35.2989 13.1739 35.6136C13.8044 36.0576 14.4389 36.4939 15.0804 36.9218C15.1561 36.9725 15.2319 37.0232 15.31 37.0755C15.416 37.146 15.416 37.146 15.5242 37.218C15.5864 37.2595 15.6486 37.3009 15.7127 37.3435C15.865 37.4394 16.0172 37.522 16.1797 37.599C17.3081 36.8307 17.3081 36.8307 18.4341 36.059C18.4807 36.027 18.5273 35.9951 18.5752 35.9622C18.8261 35.79 19.0756 35.6162 19.3239 35.4403C19.3776 35.4026 19.4312 35.3648 19.4865 35.326C19.5891 35.2539 19.6914 35.1813 19.7932 35.1081C20.2624 34.7796 20.2624 34.7796 20.5586 34.7787C20.9219 34.9031 21.2079 35.0791 21.5142 35.3075C22.0196 35.6781 22.5356 36.0319 23.0542 36.3837C23.1311 36.4359 23.208 36.4882 23.2873 36.542C23.8108 36.8971 24.3365 37.2488 24.8633 37.599C25.2311 37.4101 25.5733 37.2038 25.9053 36.9568C26.3559 36.6258 26.8167 36.3114 27.2801 35.9987C27.4379 35.8919 27.5957 35.7851 27.7535 35.6783C27.8291 35.6273 27.9047 35.5763 27.9826 35.5237C28.2523 35.3387 28.5165 35.1466 28.7792 34.9518C28.9637 34.842 29.1034 34.8002 29.3164 34.7787C29.7684 34.9244 30.1262 35.1893 30.5086 35.4652C30.639 35.5579 30.7694 35.6505 30.9 35.743C30.968 35.7912 31.036 35.8395 31.106 35.8893C31.4765 36.1505 31.8505 36.4064 32.2249 36.662C32.2963 36.711 32.3677 36.76 32.4413 36.8105C32.5401 36.8779 32.5401 36.8779 32.6409 36.9467C32.6995 36.9867 32.7581 37.0267 32.8184 37.068C32.937 37.1603 32.937 37.1603 33.0274 37.1537C33.0274 29.9285 33.0274 22.7033 33.0274 15.2592C32.3293 15.4061 32.3293 15.4061 31.6172 15.556C31.2805 15.5798 30.9682 15.5958 30.6338 15.5885C30.5517 15.5875 30.4696 15.5864 30.385 15.5854C29.3932 15.563 28.5202 15.3629 27.6094 14.9623C27.5346 14.9295 27.4598 14.8966 27.3827 14.8628C25.7565 14.1004 24.501 12.7239 23.8422 11.062C23.0995 8.9998 23.2807 7.22466 23.8985 5.1654C18.3632 5.1654 12.828 5.1654 7.12503 5.1654Z" fill="black"/>
<path d="M13.2359 9.13481C13.3634 9.13403 13.3634 9.13403 13.4934 9.13323C13.7743 9.13192 14.0552 9.13279 14.3361 9.13379C14.5312 9.13359 14.7263 9.1333 14.9214 9.13293C15.3303 9.13239 15.7391 9.1331 16.1479 9.13452C16.6204 9.13613 17.0929 9.13561 17.5654 9.13397C18.0203 9.13247 18.4751 9.13263 18.93 9.13349C19.1235 9.13369 19.3169 9.13345 19.5104 9.13276C19.7805 9.13201 20.0505 9.13315 20.3206 9.13481C20.4008 9.13421 20.481 9.13361 20.5637 9.13299C21.1036 9.13913 21.1036 9.13913 21.3481 9.31014C21.5116 9.56878 21.533 9.7743 21.5342 10.0732C21.5347 10.1508 21.5351 10.2283 21.5356 10.3082C21.5358 10.4338 21.5358 10.4338 21.5359 10.5619C21.5361 10.648 21.5364 10.7342 21.5366 10.8229C21.537 11.0052 21.5372 11.1875 21.5372 11.3698C21.5373 11.6486 21.5387 11.9275 21.5401 12.2063C21.5403 12.3834 21.5404 12.5604 21.5405 12.7375C21.5411 12.8209 21.5416 12.9043 21.5421 12.9903C21.5419 13.0683 21.5417 13.1463 21.5414 13.2267C21.5415 13.295 21.5417 13.3634 21.5418 13.4339C21.5212 13.6495 21.4737 13.8048 21.375 13.9974C21.1348 14.1576 21.0694 14.1647 20.7922 14.1657C20.681 14.1667 20.681 14.1667 20.5674 14.1676C20.4861 14.1676 20.4048 14.1675 20.321 14.1674C20.2353 14.1679 20.1496 14.1684 20.0613 14.169C19.7772 14.1704 19.4931 14.1707 19.209 14.1708C19.0618 14.1712 18.9146 14.1715 18.7673 14.1719C18.3043 14.1731 17.8414 14.1735 17.3784 14.1734C16.9008 14.1733 16.4231 14.1749 15.9455 14.1772C15.5354 14.1791 15.1254 14.1799 14.7153 14.1798C14.4703 14.1798 14.2254 14.1804 13.9805 14.1818C13.7074 14.1833 13.4343 14.1828 13.1612 14.1819C13.08 14.1828 12.9989 14.1836 12.9152 14.1845C12.8408 14.1838 12.7664 14.1832 12.6898 14.1826C12.5929 14.1827 12.5929 14.1827 12.4941 14.1828C12.2608 14.1332 12.171 14.0323 12.0234 13.849C11.9852 13.6491 11.9852 13.6491 11.9838 13.418C11.9826 13.3314 11.9815 13.2447 11.9803 13.1553C11.9806 13.062 11.981 12.9687 11.9814 12.8726C11.9809 12.7765 11.9805 12.6804 11.98 12.5814C11.9792 12.3783 11.9795 12.1752 11.9806 11.972C11.9819 11.712 11.9802 11.452 11.9776 11.1919C11.9755 10.9434 11.9763 10.695 11.9767 10.4465C11.9758 10.3532 11.9748 10.2599 11.9738 10.1637C11.9747 10.0771 11.9756 9.99037 11.9766 9.90106C11.9766 9.82482 11.9767 9.74859 11.9768 9.67004C12.0234 9.4701 12.0234 9.4701 12.1593 9.29712C12.5135 9.11056 12.8412 9.13185 13.2359 9.13481ZM13.2109 10.3607C13.2109 11.2179 13.2109 12.0752 13.2109 12.9584C15.5377 12.9584 17.8644 12.9584 20.2617 12.9584C20.2617 12.1012 20.2617 11.2439 20.2617 10.3607C17.9349 10.3607 15.6082 10.3607 13.2109 10.3607Z" fill="black"/>
<path d="M31.0234 3.68104C31.1936 3.84969 31.2427 3.94561 31.2678 4.18549C31.2652 4.25782 31.2626 4.33015 31.26 4.40467C31.257 4.51431 31.257 4.51431 31.2539 4.62616C31.2513 4.68165 31.2487 4.73714 31.2461 4.79432C31.3425 4.79738 31.4389 4.80044 31.5383 4.80359C32.0588 4.86188 32.4299 5.13439 32.7629 5.52723C32.9863 5.97399 33.0957 6.37817 32.9531 6.87244C32.7954 7.05799 32.7954 7.05799 32.582 7.16932C32.3277 7.16493 32.1463 7.16097 31.9422 7.00058C31.7871 6.80643 31.749 6.59447 31.687 6.35726C31.5967 6.15966 31.519 6.13613 31.3203 6.05604C31.1678 6.03358 31.1678 6.03358 31.0095 6.03632C30.9515 6.03613 30.8935 6.03594 30.8338 6.03574C30.744 6.0366 30.744 6.0366 30.6523 6.03748C30.5924 6.03691 30.5325 6.03633 30.4708 6.03574C30.3839 6.03603 30.3839 6.03603 30.2951 6.03632C30.2164 6.03657 30.2164 6.03657 30.136 6.03683C29.9583 6.05933 29.8396 6.11086 29.6875 6.20447C29.5824 6.41453 29.5978 6.59663 29.5947 6.83069C29.5928 6.91632 29.5909 7.00195 29.5889 7.09017C29.5934 7.31572 29.5934 7.31572 29.7165 7.45488C29.9368 7.61263 30.0784 7.62361 30.3462 7.62507C30.4194 7.6265 30.4925 7.62794 30.568 7.62941C30.7208 7.63189 30.8737 7.63328 31.0266 7.63347C31.62 7.64806 32.1458 7.77217 32.5778 8.20416C33.0661 8.79047 33.0857 9.4791 33.0273 10.2123C32.9174 10.7513 32.694 11.214 32.2341 11.5343C31.9153 11.7216 31.6114 11.7616 31.2461 11.7709C31.2499 11.8541 31.2499 11.8541 31.2539 11.939C31.2559 12.0121 31.2579 12.0852 31.26 12.1605C31.2639 12.269 31.2639 12.269 31.2678 12.3797C31.2427 12.6195 31.1927 12.7149 31.0234 12.8842C30.7285 12.9661 30.5714 12.9892 30.2905 12.861C30.1328 12.7357 30.1328 12.7357 30.0586 12.5873C30.0533 12.4482 30.0523 12.309 30.0539 12.1698C30.0546 12.0954 30.0553 12.0209 30.056 11.9442C30.0568 11.887 30.0577 11.8298 30.0586 11.7709C30.0155 11.769 29.9725 11.7671 29.9281 11.7651C29.3807 11.7253 29.0705 11.5514 28.7041 11.14C28.4042 10.7853 28.2856 10.4524 28.2773 9.98963C28.3333 9.76067 28.3929 9.6526 28.5556 9.48401C28.7827 9.36418 28.9143 9.35447 29.1679 9.39588C29.5199 9.64388 29.5961 9.89725 29.668 10.3019C29.6745 10.3458 29.6809 10.3897 29.6875 10.4349C30.0111 10.5261 30.3183 10.5228 30.6523 10.5231C30.7122 10.524 30.7721 10.5249 30.8338 10.5258C30.8918 10.526 30.9498 10.5261 31.0095 10.5263C31.0883 10.5267 31.0883 10.5267 31.1687 10.5272C31.347 10.506 31.4648 10.4547 31.6172 10.3607C31.7223 10.1504 31.704 9.96883 31.7053 9.7345C31.7063 9.64887 31.7074 9.56325 31.7085 9.47503C31.7091 9.23462 31.7091 9.23462 31.5429 9.02479C31.3237 8.95169 31.1749 8.94038 30.946 8.93752C30.8724 8.93575 30.7988 8.93398 30.7229 8.93216C30.5691 8.929 30.4152 8.92666 30.2614 8.9252C29.6685 8.90874 29.2706 8.79059 28.8154 8.40784C28.3037 7.79663 28.2342 7.20489 28.2773 6.42713C28.3596 5.81996 28.648 5.41486 29.114 5.03611C29.4251 4.80949 29.6788 4.77665 30.0586 4.79432C30.0547 4.71108 30.0547 4.71108 30.0507 4.62616C30.0487 4.55307 30.0467 4.47998 30.0447 4.40467C30.0408 4.29618 30.0408 4.29618 30.0368 4.18549C30.0619 3.94616 30.1138 3.85115 30.2812 3.68104C30.5629 3.58715 30.7357 3.61425 31.0234 3.68104Z" fill="black"/>
<path d="M13.0598 21.6795C13.1269 21.6791 13.194 21.6788 13.2631 21.6784C13.488 21.6776 13.7128 21.6788 13.9376 21.6801C14.0988 21.68 14.2599 21.6797 14.4211 21.6793C14.8589 21.6786 15.2967 21.6797 15.7345 21.6812C16.1922 21.6825 16.65 21.6822 17.1078 21.6822C17.8766 21.6823 18.6453 21.6836 19.414 21.6856C20.3034 21.688 21.1927 21.6888 22.0821 21.6886C22.937 21.6886 23.7919 21.6893 24.6467 21.6905C25.0109 21.6911 25.375 21.6913 25.7391 21.6914C26.1677 21.6916 26.5963 21.6925 27.0248 21.694C27.1823 21.6944 27.3398 21.6946 27.4973 21.6945C27.7119 21.6944 27.9264 21.6953 28.1409 21.6963C28.2036 21.6961 28.2663 21.6959 28.3309 21.6956C28.8625 21.7001 28.8625 21.7001 29.0937 21.8646C29.2493 22.0647 29.2418 22.1684 29.2282 22.4259C29.1486 22.7629 29.1486 22.7629 28.9453 22.9037C28.6564 23 28.3824 22.9886 28.0813 22.9883C27.9818 22.9887 27.9818 22.9887 27.8804 22.989C27.6573 22.9896 27.4342 22.9898 27.2112 22.9899C27.0516 22.9902 26.892 22.9906 26.7325 22.991C26.2984 22.992 25.8642 22.9924 25.4301 22.9928C25.1591 22.993 24.888 22.9933 24.617 22.9936C23.7695 22.9946 22.922 22.9953 22.0744 22.9956C21.0951 22.996 20.1158 22.9973 19.1365 22.9994C18.3802 23.001 17.6238 23.0018 16.8674 23.0019C16.4154 23.0019 15.9633 23.0024 15.5113 23.0037C15.0862 23.0049 14.6611 23.0051 14.2361 23.0044C14.0799 23.0044 13.9238 23.0047 13.7676 23.0054C13.5547 23.0064 13.3418 23.006 13.1289 23.0052C13.0669 23.0058 13.0049 23.0064 12.941 23.007C12.5979 23.0041 12.3779 22.9748 12.0976 22.7552C11.9556 22.568 11.9489 22.4727 11.9538 22.2357C12.1274 21.6804 12.5591 21.6734 13.0598 21.6795Z" fill="black"/>
<path d="M13.0598 17.6717C13.1269 17.6713 13.194 17.671 13.2631 17.6706C13.488 17.6697 13.7128 17.671 13.9376 17.6723C14.0988 17.6722 14.2599 17.6719 14.4211 17.6715C14.8589 17.6707 15.2967 17.6719 15.7345 17.6734C16.1922 17.6747 16.65 17.6744 17.1078 17.6744C17.8766 17.6745 18.6453 17.6758 19.414 17.6778C20.3034 17.6802 21.1927 17.6809 22.0821 17.6808C22.937 17.6807 23.7919 17.6815 24.6467 17.6827C25.0109 17.6833 25.375 17.6835 25.7391 17.6836C26.1677 17.6838 26.5963 17.6847 27.0248 17.6862C27.1823 17.6866 27.3398 17.6868 27.4973 17.6867C27.7119 17.6866 27.9264 17.6874 28.1409 17.6885C28.2036 17.6883 28.2663 17.6881 28.3309 17.6878C28.8625 17.6923 28.8625 17.6923 29.0937 17.8568C29.2493 18.0569 29.2418 18.1606 29.2282 18.4181C29.1486 18.7551 29.1486 18.7551 28.9453 18.8959C28.6564 18.9922 28.3824 18.9808 28.0813 18.9805C27.9818 18.9808 27.9818 18.9808 27.8804 18.9812C27.6573 18.9818 27.4342 18.9819 27.2112 18.982C27.0516 18.9824 26.892 18.9828 26.7325 18.9832C26.2984 18.9841 25.8642 18.9846 25.4301 18.9849C25.1591 18.9852 24.888 18.9855 24.617 18.9858C23.7695 18.9868 22.922 18.9875 22.0744 18.9878C21.0951 18.9882 20.1158 18.9895 19.1365 18.9916C18.3802 18.9932 17.6238 18.994 16.8674 18.9941C16.4154 18.9941 15.9633 18.9946 15.5113 18.9959C15.0862 18.9971 14.6611 18.9973 14.2361 18.9966C14.0799 18.9966 13.9238 18.9969 13.7676 18.9976C13.5547 18.9986 13.3418 18.9981 13.1289 18.9974C13.0669 18.998 13.0049 18.9986 12.941 18.9992C12.5979 18.9962 12.3779 18.967 12.0976 18.7474C11.9556 18.5602 11.9489 18.4648 11.9538 18.2279C12.1274 17.6726 12.5591 17.6656 13.0598 17.6717Z" fill="black"/>
<path d="M13.0599 25.6873C13.1269 25.6869 13.194 25.6866 13.2632 25.6862C13.488 25.6854 13.7128 25.6867 13.9376 25.6879C14.0988 25.6878 14.26 25.6875 14.4211 25.6871C14.8589 25.6864 15.2967 25.6875 15.7345 25.689C16.1923 25.6903 16.6501 25.69 17.1079 25.69C17.8766 25.6901 18.6453 25.6914 19.4141 25.6934C20.3034 25.6958 21.1927 25.6966 22.0821 25.6965C22.937 25.6964 23.7919 25.6971 24.6468 25.6984C25.0109 25.6989 25.375 25.6991 25.7392 25.6992C26.1677 25.6994 26.5963 25.7003 27.0249 25.7018C27.1823 25.7022 27.3398 25.7024 27.4973 25.7023C27.7119 25.7022 27.9264 25.7031 28.141 25.7041C28.2037 25.7039 28.2664 25.7037 28.331 25.7035C28.8625 25.7079 28.8625 25.7079 29.0938 25.8724C29.2494 26.0725 29.2418 26.1762 29.2283 26.4337C29.1486 26.7708 29.1486 26.7708 28.9453 26.9115C28.6572 27.0075 28.3844 26.9962 28.0841 26.9956C28.0181 26.9958 27.9521 26.996 27.8841 26.9961C27.6621 26.9966 27.4401 26.9966 27.218 26.9965C27.0592 26.9967 26.9004 26.997 26.7415 26.9973C26.3094 26.9979 25.8773 26.9981 25.4452 26.9981C25.0847 26.9982 24.7243 26.9985 24.3639 26.9987C23.5138 26.9993 22.6637 26.9995 21.8135 26.9995C20.9358 26.9994 20.0581 27.0002 19.1804 27.0014C18.4275 27.0023 17.6746 27.0027 16.9217 27.0027C16.4717 27.0027 16.0218 27.0029 15.5718 27.0037C15.1487 27.0044 14.7255 27.0044 14.3024 27.0039C14.147 27.0038 13.9915 27.004 13.8361 27.0044C13.6242 27.005 13.4123 27.0046 13.2003 27.0041C13.1386 27.0044 13.0769 27.0048 13.0133 27.0052C12.7016 27.0034 12.4523 26.9902 12.1719 26.8373C11.9961 26.6263 11.9492 26.5145 11.9492 26.2389C12.136 25.6903 12.5575 25.6812 13.0599 25.6873Z" fill="black"/>
<path d="M13.0599 29.6951C13.1269 29.6948 13.194 29.6944 13.2632 29.694C13.488 29.6932 13.7128 29.6945 13.9376 29.6957C14.0988 29.6956 14.26 29.6953 14.4211 29.6949C14.8589 29.6942 15.2967 29.6953 15.7345 29.6968C16.1923 29.6981 16.6501 29.6979 17.1079 29.6978C17.8766 29.6979 18.6453 29.6992 19.4141 29.7013C20.3034 29.7036 21.1927 29.7044 22.0821 29.7043C22.937 29.7042 23.7919 29.7049 24.6468 29.7062C25.0109 29.7067 25.375 29.707 25.7392 29.707C26.1677 29.7072 26.5963 29.7081 27.0249 29.7096C27.1823 29.71 27.3398 29.7102 27.4973 29.7101C27.7119 29.71 27.9264 29.7109 28.141 29.712C28.2037 29.7117 28.2664 29.7115 28.331 29.7113C28.8625 29.7157 28.8625 29.7157 29.0938 29.8802C29.2494 30.0803 29.2418 30.184 29.2283 30.4415C29.1471 30.7848 29.1471 30.7848 28.9453 30.9193C28.6342 31.0132 28.326 31.0041 28.0038 31.0035C27.938 31.0036 27.8723 31.0038 27.8045 31.004C27.5838 31.0044 27.363 31.0044 27.1422 31.0043C26.9841 31.0045 26.826 31.0048 26.6678 31.0051C26.238 31.0057 25.8082 31.0059 25.3784 31.0059C25.0198 31.006 24.6613 31.0063 24.3027 31.0065C23.4569 31.0072 22.6112 31.0073 21.7654 31.0073C20.8923 31.0072 20.0192 31.008 19.1461 31.0092C18.397 31.0102 17.6478 31.0106 16.8987 31.0105C16.4511 31.0105 16.0034 31.0107 15.5558 31.0115C15.1349 31.0122 14.714 31.0122 14.2932 31.0117C14.1386 31.0116 13.984 31.0118 13.8294 31.0122C13.6186 31.0128 13.4078 31.0125 13.197 31.0119C13.1356 31.0123 13.0743 31.0126 13.011 31.013C12.7 31.0112 12.4518 30.9975 12.1719 30.8451C11.9961 30.6341 11.9492 30.5224 11.9492 30.2467C12.136 29.6981 12.5575 29.689 13.0599 29.6951Z" fill="black"/>
</g>
<defs>
<clipPath id="clip0_155_197">
<rect width="38" height="38" fill="white" transform="translate(0 0.934937)"/>
</clipPath>
</defs>
</svg>
