<svg width="40" height="40" viewBox="0 0 40 40" fill="none" xmlns="http://www.w3.org/2000/svg">
<g opacity="0.89" clip-path="url(#clip0_155_221)">
<path fill-rule="evenodd" clip-rule="evenodd" d="M20.0462 6.255C25.2599 6.28 30.3237 9.49 32.5237 14.3137C33.7287 16.9537 34.0549 19.9812 33.4712 22.8162C33.4712 22.8162 33.3237 23.3375 33.0124 23.5837C32.4749 24.0062 31.5812 23.88 31.1924 23.285C30.8099 22.7012 31.1312 21.8763 31.2062 21.0863C31.6899 15.9888 28.3374 10.7475 23.2149 9.2225C19.3262 8.065 14.8349 9.1975 11.9499 12.1513C8.62369 15.5575 7.76369 21.1588 10.1537 25.4638C11.8174 28.4587 14.9037 30.62 18.2874 31.1375C19.6124 31.34 20.9712 31.3038 22.2899 31.0338L22.3974 31.0175C22.4937 31.01 22.5187 31.005 22.6149 31.0112C23.3049 31.0525 23.8799 31.755 23.7774 32.4425C23.6924 33.015 23.1837 33.4112 22.5812 33.5262C17.3287 34.525 11.5449 32.1812 8.50494 27.565C6.35494 24.3 5.69369 20.1175 6.74494 16.33C8.31369 10.6763 13.8512 6.34125 19.8249 6.25625C19.8987 6.25625 19.9724 6.255 20.0462 6.255Z" fill="#868686"/>
<path d="M20.0453 6.24529C25.2595 6.2703 30.3236 9.47915 32.5232 14.3035C33.7282 16.9444 34.0533 19.9723 33.4707 22.806C33.4707 22.806 33.3236 23.3283 33.0117 23.574C32.4747 23.9962 31.5801 23.8697 31.1917 23.2753C30.8092 22.6912 31.1314 21.8658 31.2064 21.0757C31.689 15.9778 28.3374 10.7371 23.2144 9.21285C19.3259 8.05496 14.8341 9.18637 11.9489 12.1407C8.62234 15.5482 7.76311 21.1478 10.1539 25.4528C11.8165 28.4483 14.9032 30.6096 18.2871 31.1275C19.6113 31.3305 20.9708 31.2937 22.289 31.0245L22.3964 31.0069C22.4935 30.9995 22.5171 30.9951 22.6142 31.001C23.3042 31.0422 23.8795 31.7454 23.7765 32.4325C23.6926 33.0048 23.1835 33.4021 22.5803 33.5154C17.3279 34.5144 11.5443 32.1706 8.50463 27.5538C6.3551 24.289 5.69303 20.1062 6.74352 16.3191C8.31337 10.6665 13.8512 6.3321 19.8232 6.24676C19.8982 6.24529 19.9718 6.24529 20.0453 6.24529Z" fill="white"/>
<path d="M30.0063 30.005V26.2537C30.0126 26.025 30.0338 25.9625 30.0763 25.84C30.2301 25.4 30.6463 25.0638 31.1163 25.0113C31.2513 24.995 31.2838 25.0037 31.3263 25.005C31.5538 25.0237 31.6163 25.0488 31.7351 25.0988C32.1451 25.2675 32.4488 25.6687 32.4988 26.1137C32.5063 26.175 32.5051 26.1912 32.5076 26.2537V30.005H36.2588C36.2826 30.0062 36.3051 30.0062 36.3288 30.0075C36.6151 30.0312 36.7063 30.075 36.8638 30.1612C37.5838 30.56 37.7163 31.755 36.9826 32.2763C36.7726 32.425 36.5151 32.4987 36.2588 32.5062H32.5076V36.2588C32.4801 37.2163 31.2163 37.8987 30.4226 37.1912C30.1963 36.9875 30.0476 36.7 30.0138 36.3988C30.0063 36.3363 30.0076 36.32 30.0063 36.2588V32.5062H26.2538C25.9676 32.4987 25.8726 32.46 25.7113 32.3825C24.9438 32.0125 24.7826 30.7663 25.5301 30.2363C25.7401 30.0875 25.9976 30.0125 26.2538 30.005H30.0063ZM18.7501 13.615V12.4975C18.7601 12.235 18.7826 12.1913 18.8226 12.0788C18.9751 11.65 19.3763 11.3213 19.8313 11.2588C19.9938 11.2363 20.0338 11.2475 20.0863 11.25C20.6663 11.3088 21.1626 11.7588 21.2401 12.3263C21.2501 12.4025 21.2488 12.4213 21.2513 12.4975V13.6125C22.8863 13.92 24.3938 14.8413 24.8776 16.4925C24.9576 16.7688 25.0001 17.0563 25.0038 17.345C25.0038 17.345 24.9851 17.7425 24.8338 18.0025C24.4538 18.6563 23.4163 18.8138 22.8626 18.2513C22.3051 17.685 22.7738 16.7913 21.3726 16.2425C21.3326 16.2275 21.2926 16.2125 21.2513 16.1988V18.8713C22.8188 19.1738 24.2601 20.05 24.8088 21.54C25.1588 22.4938 25.0013 23.6088 24.4276 24.4538C23.7238 25.4925 22.5501 26.1513 21.2513 26.405V27.5037C21.2413 27.82 21.1976 27.9125 21.1113 28.08C20.7263 28.8237 19.5063 28.9713 18.9801 28.225C18.8651 28.0625 18.7888 27.8725 18.7626 27.675C18.7513 27.5987 18.7538 27.58 18.7501 27.5037V26.3962C18.0601 26.2575 17.3963 26.0025 16.8076 25.6275C15.8363 25.01 15.0688 23.9925 15.0038 22.7975C14.9588 21.9663 15.7413 21.1975 16.5726 21.42C17.1088 21.5638 17.4676 22.0938 17.5013 22.6675C17.5426 23.265 18.1701 23.5788 18.6301 23.7588C18.6701 23.7738 18.7101 23.7888 18.7501 23.8025V21.1325C17.1276 20.82 15.6026 19.8862 15.1251 18.2537C14.8113 17.1812 15.1426 15.9713 15.9013 15.1325C16.6451 14.3088 17.6776 13.8238 18.7501 13.615ZM21.2513 21.4538V23.8175C21.5776 23.7013 21.8751 23.535 22.1201 23.3163C22.3363 23.1238 22.5263 22.865 22.5001 22.5725C22.4426 21.9338 21.7563 21.6263 21.2513 21.4538ZM18.7501 16.185C18.4226 16.3013 18.1263 16.4675 17.8826 16.685C17.6676 16.8763 17.4788 17.1313 17.5026 17.4238C17.5538 18.06 18.2376 18.3737 18.7501 18.5487V16.185Z" fill="white"/>
<path d="M20.0478 2.51075C23.4895 2.52136 26.9303 3.55158 29.7955 5.48288C33.1982 7.77499 35.753 11.3024 36.8619 15.2623C37.9071 19.0012 37.6542 23.122 36.1942 26.6724C35.684 27.9131 34.1515 27.6381 33.8234 26.6663C33.6754 26.225 33.8638 25.7466 34.0513 25.2705C34.1024 25.1408 34.1534 25.0112 34.1975 24.8826C35.9325 19.8209 34.7617 13.8855 31.0724 9.86193C27.934 6.44058 23.1349 4.62158 18.4959 5.08849C15.8854 5.35201 13.3537 6.30793 11.2234 7.83511L11.0589 7.94831C10.737 8.12163 10.6239 8.12516 10.4178 8.12428C9.57596 8.12428 8.87294 7.10468 9.31774 6.2814C9.46643 6.0043 9.73699 5.8184 10.0084 5.63195C10.0211 5.62324 10.0337 5.61452 10.0464 5.6058C12.9319 3.61524 16.4337 2.52932 19.9532 2.51164C19.9691 2.51164 19.9848 2.51141 20.0005 2.51119C20.0162 2.51097 20.0319 2.51075 20.0478 2.51075ZM7.00441 9.07579C7.95238 9.16952 8.48562 10.3306 7.91613 11.1035C7.90331 11.1207 7.8907 11.1382 7.8781 11.1557C7.8655 11.1731 7.8529 11.1906 7.84008 11.2078C4.13929 16.3341 4.06942 23.9011 8.10094 29.1388C10.8591 32.7228 15.2921 34.9521 19.8391 35.0017C21.9022 35.0238 23.9617 34.6179 25.8727 33.814L25.9788 33.7751C26.3325 33.6796 26.4431 33.7017 26.6438 33.7486C27.6307 33.9803 28.0065 35.633 26.7712 36.1504C21.3752 38.4053 15.0843 37.7669 10.2931 34.5692C5.61165 31.4441 2.58911 25.9668 2.50245 20.2648C2.44497 16.4862 3.63878 12.7173 5.8734 9.66031C5.8734 9.66031 6.39071 9.07048 7.00441 9.07579Z" fill="white"/>
<path d="M20.0478 2.51075C23.4895 2.52136 26.9303 3.55158 29.7955 5.48288C33.1982 7.77499 35.753 11.3024 36.8619 15.2623C37.9071 19.0012 37.6542 23.122 36.1942 26.6724C35.684 27.9131 34.1515 27.6381 33.8234 26.6663C33.6754 26.225 33.8638 25.7466 34.0513 25.2705C34.1024 25.1408 34.1534 25.0112 34.1975 24.8826C35.9325 19.8209 34.7617 13.8855 31.0724 9.86193C27.934 6.44058 23.1349 4.62158 18.4959 5.08849C15.8854 5.35201 13.3537 6.30793 11.2234 7.83511L11.0589 7.94831C10.737 8.12163 10.6239 8.12516 10.4178 8.12428C9.57596 8.12428 8.87294 7.10468 9.31774 6.2814C9.46643 6.0043 9.73699 5.8184 10.0084 5.63195C10.0211 5.62324 10.0337 5.61452 10.0464 5.6058C12.9319 3.61524 16.4337 2.52932 19.9532 2.51164C19.9691 2.51164 19.9848 2.51141 20.0005 2.51119C20.0162 2.51097 20.0319 2.51075 20.0478 2.51075ZM7.00441 9.07579C7.95238 9.16952 8.48562 10.3306 7.91613 11.1035C7.90331 11.1207 7.8907 11.1382 7.8781 11.1557C7.8655 11.1731 7.8529 11.1906 7.84008 11.2078C4.13929 16.3341 4.06942 23.9011 8.10094 29.1388C10.8591 32.7228 15.2921 34.9521 19.8391 35.0017C21.9022 35.0238 23.9617 34.6179 25.8727 33.814L25.9788 33.7751C26.3325 33.6796 26.4431 33.7017 26.6438 33.7486C27.6307 33.9803 28.0065 35.633 26.7712 36.1504C21.3752 38.4053 15.0843 37.7669 10.2931 34.5692C5.61165 31.4441 2.58911 25.9668 2.50245 20.2648C2.44497 16.4862 3.63878 12.7173 5.8734 9.66031C5.8734 9.66031 6.39071 9.07048 7.00441 9.07579Z" stroke="white"/>
</g>
<defs>
<clipPath id="clip0_155_221">
<rect width="40" height="40" fill="white"/>
</clipPath>
</defs>
</svg>
