<svg width="40" height="41" viewBox="0 0 40 41" fill="none" xmlns="http://www.w3.org/2000/svg">
<g clip-path="url(#clip0_172_277)">
<path d="M31.9215 11.3985C31.9995 11.3979 31.9995 11.3979 32.079 11.3973C32.2509 11.3962 32.4227 11.3957 32.5946 11.3952C32.7142 11.3948 32.8338 11.3943 32.9534 11.3939C33.2041 11.3931 33.4549 11.3926 33.7056 11.3923C34.0265 11.3919 34.3475 11.39 34.6684 11.3878C34.9154 11.3863 35.1625 11.3859 35.4095 11.3858C35.5278 11.3856 35.6461 11.385 35.7644 11.3839C35.9301 11.3826 36.0957 11.3827 36.2614 11.3832C36.3556 11.383 36.4498 11.3827 36.5468 11.3824C36.8212 11.4139 36.9681 11.4807 37.1875 11.6455C37.2868 11.8441 37.2753 11.9816 37.2752 12.2041C37.2754 12.2898 37.2756 12.3756 37.2757 12.4639C37.2755 12.5589 37.2753 12.6539 37.275 12.7518C37.2751 12.9023 37.2751 12.9023 37.2752 13.0558C37.2754 13.3351 37.2751 13.6145 37.2747 13.8938C37.2744 14.1947 37.2745 14.4956 37.2745 14.7965C37.2746 15.3181 37.2743 15.8397 37.2739 16.3613C37.2733 17.1155 37.273 17.8697 37.2729 18.6239C37.2728 19.8474 37.2723 21.0709 37.2715 22.2944C37.2708 23.4832 37.2702 24.6719 37.2699 25.8607C37.2699 25.9705 37.2699 25.9705 37.2699 26.0826C37.2698 26.45 37.2697 26.8174 37.2696 27.1847C37.2687 30.2341 37.2674 33.2836 37.2656 36.333C37.3275 36.3309 37.3893 36.3289 37.4531 36.3268C37.734 36.3186 38.0149 36.3136 38.2959 36.3086C38.3932 36.3053 38.4906 36.302 38.5909 36.2986C39.396 36.2878 39.396 36.2878 39.6347 36.5192C39.7664 36.7248 39.8146 36.8237 39.8149 37.0642C39.8159 37.1288 39.8169 37.1935 39.8179 37.2601C39.8163 37.3633 39.8163 37.3633 39.8148 37.4685C39.8149 37.5401 39.8151 37.6116 39.8153 37.6853C39.8153 37.8361 39.8142 37.987 39.8123 38.1378C39.8096 38.3686 39.8106 38.5992 39.8122 38.8301C39.8116 38.9768 39.8109 39.1236 39.8099 39.2703C39.8103 39.3392 39.8107 39.4082 39.8111 39.4792C39.8098 39.5436 39.8086 39.608 39.8073 39.6744C39.8066 39.759 39.8066 39.759 39.8058 39.8453C39.7455 40.0847 39.649 40.1672 39.4531 40.3173C39.2281 40.348 39.0329 40.3594 38.8079 40.3567C38.709 40.3574 38.709 40.3574 38.6081 40.3581C38.3856 40.3592 38.1631 40.3581 37.9406 40.357C37.7801 40.3574 37.6196 40.3579 37.459 40.3585C37.0167 40.3598 36.5745 40.3592 36.1322 40.3582C35.6557 40.3575 35.1791 40.3586 34.7026 40.3594C33.8226 40.3608 32.9427 40.3606 32.0627 40.3598C31.2499 40.359 30.437 40.3588 29.6242 40.3592C29.5703 40.3592 29.5164 40.3592 29.4609 40.3592C29.2423 40.3593 29.0236 40.3594 28.8049 40.3595C26.7527 40.3605 24.7005 40.3596 22.6483 40.3579C20.8242 40.3565 19 40.3566 17.1758 40.3581C15.1274 40.3598 13.079 40.3604 11.0306 40.3595C10.8124 40.3594 10.5941 40.3593 10.3758 40.3592C10.3221 40.3591 10.2683 40.3591 10.2129 40.3591C9.40051 40.3587 8.58808 40.3592 7.77564 40.3599C6.85208 40.3608 5.92852 40.3606 5.00495 40.3589C4.5334 40.3581 4.06186 40.3578 3.59031 40.3588C3.15911 40.3597 2.72794 40.3592 2.29674 40.3576C2.14028 40.3572 1.98382 40.3574 1.82737 40.3581C1.61557 40.3591 1.40386 40.3581 1.19207 40.3567C1.13056 40.3574 1.06905 40.3581 1.00568 40.3589C0.728259 40.355 0.576153 40.3398 0.352815 40.1686C0.22016 39.9852 0.194621 39.8982 0.1927 39.6744C0.191463 39.61 0.190227 39.5455 0.188952 39.4792C0.189339 39.4102 0.189726 39.3413 0.190125 39.2703C0.189641 39.1988 0.189158 39.1274 0.188659 39.0537C0.188104 38.9028 0.188351 38.7518 0.189343 38.6008C0.190425 38.3701 0.187766 38.1397 0.184784 37.9091C0.18471 37.7622 0.184855 37.6154 0.185242 37.4685C0.184206 37.3998 0.183169 37.331 0.182102 37.2601C0.183081 37.1955 0.184062 37.1308 0.185071 37.0642C0.185146 37.0077 0.185222 36.9512 0.185299 36.893C0.242848 36.6943 0.319264 36.5512 0.472124 36.4097C0.841314 36.2244 1.30228 36.295 1.7041 36.3086C1.80295 36.3103 1.90179 36.3121 2.00363 36.3139C2.24731 36.3185 2.49079 36.3249 2.73438 36.333C2.73409 36.2849 2.7338 36.2369 2.7335 36.1874C2.7266 35.019 2.72143 33.8506 2.71818 32.6821C2.71657 32.1171 2.71438 31.552 2.7108 30.987C2.70769 30.4945 2.70567 30.002 2.70497 29.5096C2.70457 29.2488 2.70344 28.988 2.70134 28.7272C2.69907 28.4361 2.69875 28.1451 2.6989 27.854C2.69721 27.7242 2.69721 27.7242 2.69549 27.5918C2.69592 27.5125 2.69635 27.4332 2.6968 27.3515C2.69651 27.2826 2.69622 27.2138 2.69592 27.1428C2.74757 26.8945 2.85035 26.8009 3.04688 26.6455C3.29886 26.6058 3.29886 26.6058 3.60092 26.605C3.65609 26.6045 3.71126 26.6039 3.7681 26.6034C3.95009 26.602 4.13198 26.6029 4.31397 26.604C4.44064 26.6038 4.56731 26.6035 4.69398 26.6031C4.9593 26.6026 5.2246 26.6033 5.48992 26.6047C5.82989 26.6065 6.16978 26.6055 6.50974 26.6036C6.77126 26.6025 7.03277 26.6028 7.29429 26.6037C7.41963 26.6039 7.54498 26.6036 7.67032 26.6029C7.84557 26.6021 8.02071 26.6033 8.19595 26.605C8.29563 26.6053 8.39531 26.6055 8.49801 26.6058C8.80083 26.6535 8.87372 26.7223 9.0625 26.958C9.10095 27.1428 9.10095 27.1428 9.10008 27.3515C9.10051 27.4308 9.10094 27.5101 9.10138 27.5918C9.10026 27.6783 9.09913 27.7649 9.09798 27.854C9.09802 27.9455 9.09807 28.037 9.09812 28.1313C9.0979 28.434 9.09547 28.7366 9.09302 29.0393C9.09226 29.249 9.09198 29.4588 9.09168 29.6685C9.09071 30.1643 9.08814 30.6601 9.08501 31.1559C9.08151 31.7205 9.07979 32.285 9.07823 32.8496C9.07496 34.0107 9.06923 35.1718 9.0625 36.333C10.068 36.333 11.0734 36.333 12.1094 36.333C12.1077 35.8996 12.1061 35.4661 12.1044 35.0196C12.0992 33.5899 12.0958 32.1601 12.0932 30.7304C12.0916 29.8633 12.0894 28.9962 12.0858 28.1291C12.0827 27.3734 12.0807 26.6178 12.08 25.8621C12.0796 25.4619 12.0786 25.0617 12.0763 24.6615C12.0742 24.2849 12.0736 23.9083 12.074 23.5317C12.0739 23.3934 12.0733 23.2551 12.0721 23.1168C12.0706 22.9281 12.0709 22.7394 12.0718 22.5507C12.0709 22.4959 12.07 22.4411 12.069 22.3846C12.0724 22.1117 12.1066 21.9624 12.2522 21.7287C12.4915 21.5012 12.6494 21.5188 12.9759 21.5193C13.0587 21.5186 13.0587 21.5186 13.1431 21.518C13.3251 21.517 13.507 21.5189 13.689 21.521C13.8156 21.5211 13.9423 21.5211 14.069 21.521C14.3343 21.5211 14.5996 21.5225 14.8649 21.525C15.2049 21.5281 15.5448 21.5284 15.8847 21.5279C16.1463 21.5276 16.4078 21.5286 16.6693 21.5299C16.7946 21.5304 16.92 21.5307 17.0453 21.5306C17.2206 21.5308 17.3957 21.5324 17.571 21.5345C17.6706 21.5352 17.7703 21.5359 17.873 21.5365C18.1412 21.5693 18.2507 21.61 18.4375 21.8017C18.5289 22.076 18.5262 22.3218 18.525 22.607C18.5251 22.6949 18.5251 22.6949 18.5252 22.7846C18.5254 22.9814 18.5249 23.1783 18.5245 23.3751C18.5245 23.516 18.5245 23.6569 18.5245 23.7978C18.5246 24.1808 18.5241 24.5638 18.5235 24.9468C18.5231 25.3469 18.523 25.747 18.5229 26.147C18.5227 26.9049 18.522 27.6627 18.5213 28.4206C18.5204 29.2832 18.5199 30.1459 18.5196 31.0086C18.5187 32.7834 18.5173 34.5582 18.5156 36.333C19.4953 36.333 20.475 36.333 21.4844 36.333C21.4839 36.0882 21.4833 35.8434 21.4828 35.5912C21.4781 33.347 21.4746 31.1028 21.4724 28.8586C21.4721 28.5645 21.4718 28.2705 21.4715 27.9764C21.4714 27.9179 21.4714 27.8593 21.4713 27.799C21.4703 26.8508 21.4684 25.9025 21.4663 24.9543C21.4641 23.9815 21.4628 23.0087 21.4623 22.0359C21.462 21.4355 21.461 20.8351 21.4591 20.2347C21.4577 19.7746 21.4576 19.3144 21.4579 18.8542C21.4578 18.6653 21.4573 18.4764 21.4564 18.2874C21.4553 18.03 21.4556 17.7725 21.4562 17.515C21.4555 17.4399 21.4548 17.3647 21.4541 17.2873C21.4567 16.907 21.4647 16.6384 21.7188 16.333C22.016 16.1639 22.2833 16.157 22.6208 16.1565C22.7738 16.1558 22.7738 16.1558 22.9298 16.155C23.0404 16.1553 23.1511 16.1556 23.2617 16.156C23.3758 16.1559 23.4899 16.1557 23.604 16.1555C23.8428 16.1553 24.0816 16.1556 24.3204 16.1564C24.6259 16.1572 24.9314 16.1567 25.2369 16.1558C25.4724 16.1552 25.7079 16.1554 25.9435 16.1558C26.0561 16.1559 26.1687 16.1558 26.2813 16.1554C26.4389 16.155 26.5966 16.1557 26.7542 16.1565C26.8885 16.1567 26.8885 16.1567 27.0255 16.1569C27.3445 16.1832 27.5645 16.231 27.7828 16.4736C27.9044 16.6675 27.9198 16.765 27.9195 16.9914C27.9199 17.0606 27.9204 17.1298 27.9209 17.2011C27.9202 17.2768 27.9195 17.3525 27.9188 17.4305C27.919 17.5111 27.9192 17.5918 27.9194 17.6749C27.9198 17.946 27.9185 18.2171 27.9172 18.4882C27.9172 18.6822 27.9172 18.8762 27.9173 19.0702C27.9174 19.4883 27.9167 19.9064 27.9154 20.3246C27.9135 20.9291 27.9129 21.5336 27.9126 22.1381C27.9121 23.1189 27.9105 24.0997 27.9083 25.0805C27.9062 26.0332 27.9045 26.986 27.9035 27.9387C27.9034 27.9975 27.9034 28.0562 27.9033 28.1167C27.903 28.4113 27.9027 28.7059 27.9024 29.0005C27.9 31.4447 27.8958 33.8888 27.8906 36.333C28.8961 36.333 29.9016 36.333 30.9375 36.333C30.937 36.0263 30.9365 35.7197 30.9359 35.4038C30.9313 32.5937 30.9278 29.7836 30.9255 26.9735C30.9252 26.6054 30.9249 26.2373 30.9246 25.8693C30.9246 25.796 30.9245 25.7227 30.9244 25.6472C30.9234 24.4597 30.9216 23.2722 30.9194 22.0847C30.9172 20.8667 30.9159 19.6488 30.9154 18.4308C30.9151 17.6789 30.9141 16.927 30.9122 16.1751C30.911 15.66 30.9106 15.1448 30.9109 14.6296C30.911 14.3321 30.9108 14.0346 30.9096 13.7371C30.9082 13.4149 30.9087 13.0928 30.9093 12.7706C30.9086 12.6761 30.908 12.5815 30.9072 12.4841C30.9077 12.398 30.9082 12.312 30.9087 12.2233C30.9085 12.1117 30.9085 12.1117 30.9084 11.9978C30.9431 11.764 31.0087 11.6584 31.1719 11.4892C31.4373 11.4008 31.6416 11.4001 31.9215 11.3985ZM32.2656 12.7392C32.2656 20.5252 32.2656 28.3111 32.2656 36.333C33.4773 36.333 34.6891 36.333 35.9375 36.333C35.9375 28.547 35.9375 20.7611 35.9375 12.7392C34.7258 12.7392 33.5141 12.7392 32.2656 12.7392ZM22.8125 17.5048C22.8125 23.7181 22.8125 29.9314 22.8125 36.333C24.05 36.333 25.2875 36.333 26.5625 36.333C26.5625 30.1197 26.5625 23.9064 26.5625 17.5048C25.325 17.5048 24.0875 17.5048 22.8125 17.5048ZM13.4375 22.8173C13.4375 27.2775 13.4375 31.7377 13.4375 36.333C14.675 36.333 15.9125 36.333 17.1875 36.333C17.1875 31.8728 17.1875 27.4127 17.1875 22.8173C15.95 22.8173 14.7125 22.8173 13.4375 22.8173ZM4.0625 27.9736C4.0625 30.7322 4.0625 33.4908 4.0625 36.333C5.27422 36.333 6.48594 36.333 7.73438 36.333C7.73438 33.5744 7.73438 30.8158 7.73438 27.9736C6.52266 27.9736 5.31094 27.9736 4.0625 27.9736ZM1.5625 37.6611C1.5625 38.1252 1.5625 38.5892 1.5625 39.0673C13.7312 39.0673 25.9 39.0673 38.4375 39.0673C38.4375 38.6033 38.4375 38.1392 38.4375 37.6611C26.2688 37.6611 14.1 37.6611 1.5625 37.6611Z" fill="white"/>
<path d="M36.3437 1.78616C36.6437 1.77346 36.838 1.78694 37.1191 1.89938C37.4802 2.4289 37.2467 3.32623 37.157 3.93277C37.1456 4.01202 37.1342 4.09127 37.1224 4.17292C37.0984 4.33859 37.0739 4.50422 37.0491 4.66979C37.0116 4.92295 36.976 5.17634 36.9406 5.42981C36.9168 5.59162 36.8929 5.75342 36.8689 5.91519C36.8534 6.02823 36.8534 6.02823 36.8375 6.14356C36.775 6.5466 36.7159 6.82354 36.4062 7.11423C36.2329 7.16611 36.2329 7.16611 36.0547 7.16305C35.9665 7.16457 35.9665 7.16457 35.8765 7.16611C35.6133 7.08735 35.5297 6.95572 35.3906 6.7236C35.3717 6.49014 35.3717 6.49014 35.4004 6.23044C35.4102 6.13547 35.4199 6.0405 35.43 5.94266C35.4427 5.83837 35.4557 5.7341 35.4688 5.62985C35.4825 5.51338 35.4962 5.3969 35.5099 5.28043C35.546 4.97992 35.5849 4.67985 35.625 4.37985C35.1838 4.73319 34.7518 5.09071 34.3359 5.4736C33.9196 5.85592 33.487 6.21283 33.0469 6.56735C32.948 6.64805 32.8493 6.72883 32.7505 6.80966C32.1519 7.29939 31.5486 7.78095 30.9327 8.24883C30.7547 8.38448 30.5774 8.52099 30.4001 8.6575C29.6058 9.26772 28.8044 9.8629 27.9815 10.4339C27.805 10.5569 27.6296 10.6813 27.4542 10.8059C22.1379 14.5758 16.3372 17.7594 10 20.4736C9.94163 20.4985 9.88327 20.5233 9.82314 20.5489C3.44204 23.2606 3.44204 23.2606 2.5 23.1299C2.30469 23.0127 2.30469 23.0127 2.1875 22.8174C2.14477 22.6002 2.13047 22.407 2.1875 22.1924C2.44797 21.8228 2.85794 21.7258 3.2666 21.582C3.43633 21.5202 3.60601 21.4582 3.77563 21.3961C3.87025 21.3617 3.96486 21.3272 4.06235 21.2917C7.63731 19.9823 11.1221 18.4799 14.537 16.7977C14.6817 16.7264 14.8265 16.6553 14.9713 16.5843C18.552 14.8243 22.0128 12.7947 25.3125 10.5517C25.3617 10.5183 25.411 10.4848 25.4617 10.4503C25.8299 10.1995 26.1965 9.94632 26.5625 9.69235C26.6407 9.63833 26.6407 9.63833 26.7205 9.58321C27.6182 8.96201 28.487 8.30626 29.3527 7.64127C29.575 7.47143 29.7995 7.3049 30.0244 7.13864C30.5556 6.74193 31.0661 6.31985 31.579 5.89993C31.7576 5.75442 31.9383 5.6115 32.1191 5.46872C32.525 5.14515 32.9172 4.80624 33.3102 4.46744C33.5954 4.22173 33.8824 3.97825 34.1699 3.73532C34.2141 3.69798 34.2583 3.66063 34.3038 3.62216C34.4057 3.53615 34.5075 3.45018 34.6094 3.36423C34.5428 3.36627 34.4762 3.36832 34.4076 3.37043C34.1594 3.3771 33.9112 3.38199 33.6629 3.38568C33.5556 3.38764 33.4484 3.3903 33.3412 3.3937C33.1867 3.39846 33.0321 3.40045 32.8775 3.40237C32.7382 3.40544 32.7382 3.40544 32.5961 3.40857C32.2711 3.35146 32.1581 3.22574 31.9531 2.9736C31.8771 2.7333 31.9119 2.60828 31.9531 2.3486C32.2305 2.06572 32.4347 1.99481 32.8253 1.97415C32.9187 1.9685 33.0122 1.96285 33.1084 1.95702C33.2073 1.9525 33.3063 1.94798 33.4082 1.94333C33.5603 1.93474 33.5603 1.93474 33.7155 1.92597C33.9191 1.91464 34.1227 1.90392 34.3264 1.89385C34.5715 1.88173 34.8164 1.86807 35.0613 1.8533C35.4887 1.82786 35.9165 1.81277 36.3437 1.78616Z" fill="white"/>
<path d="M10.625 0.629866C10.6746 0.646193 10.7242 0.662521 10.7753 0.679343C12.76 1.34655 14.3244 2.80497 15.2936 4.63988C16.2208 6.56882 16.4013 8.7704 15.7216 10.8088C14.9999 12.8292 13.5432 14.5003 11.6016 15.4248C9.59985 16.3412 7.39383 16.4362 5.32715 15.6933C3.22518 14.8968 1.68177 13.2749 0.76725 11.2493C0.359824 10.2921 0.204521 9.30047 0.209961 8.26658C0.210289 8.18107 0.210616 8.09554 0.210953 8.00743C0.220163 7.34444 0.28756 6.73903 0.46875 6.09862C0.490503 6.01926 0.512256 5.9399 0.534668 5.85814C1.16776 3.77331 2.64102 2.11252 4.54285 1.08732C6.36912 0.165571 8.6886 -0.0251217 10.625 0.629866ZM3.75 3.28612C3.68494 3.34382 3.61989 3.40153 3.55286 3.46098C2.3109 4.62842 1.57944 6.28009 1.52536 7.98184C1.50822 9.95119 2.19558 11.5983 3.55225 13.0194C4.80834 14.2143 6.44634 14.8346 8.16406 14.8779C10.0416 14.8306 11.5974 14.0925 12.9688 12.8174C14.2645 11.4543 14.8313 9.68078 14.79 7.82835C14.7102 6.0485 13.8468 4.46491 12.576 3.2495C10.0079 1.06278 6.28065 1.02337 3.75 3.28612Z" fill="white"/>
<path d="M8.4375 2.97361C8.62226 3.11948 8.72346 3.23304 8.82813 3.44236C8.83861 3.65114 8.8315 3.85819 8.82813 4.06736C8.96348 4.09395 8.96348 4.09395 9.10156 4.12108C9.82348 4.30442 10.4179 4.81249 10.8154 5.43455C10.9535 5.74375 10.9932 5.92071 10.9375 6.25486C10.7354 6.54264 10.6196 6.63121 10.2734 6.6992C9.97144 6.63988 9.87499 6.5566 9.69544 6.31102C9.616 6.18708 9.54163 6.05994 9.46777 5.9326C9.23948 5.63256 9.03415 5.49793 8.67188 5.39549C8.10161 5.31931 7.62009 5.32499 7.15027 5.68083C6.87144 5.92748 6.80534 6.02247 6.7627 6.40623C6.7736 6.63223 6.80122 6.73192 6.90918 6.93846C7.3916 7.36205 8.00941 7.48574 8.62305 7.61229C9.55087 7.82062 10.3026 8.09824 10.8594 8.91111C11.1779 9.48438 11.2517 10.1348 11.0815 10.7684C10.8146 11.473 10.3422 11.8784 9.67346 12.1948C9.38682 12.3116 9.13763 12.3776 8.82813 12.3486C8.83296 12.4437 8.83779 12.5388 8.84277 12.6367C8.84331 12.941 8.78599 13.1202 8.59375 13.3642C8.34195 13.4901 8.08482 13.4881 7.8125 13.4424C7.61719 13.291 7.61719 13.291 7.5 13.0517C7.47623 12.8148 7.4814 12.5858 7.5 12.3486C7.42588 12.3438 7.35176 12.3389 7.27539 12.334C6.60758 12.2353 6.03746 11.8567 5.625 11.333C5.32722 10.9037 5.16515 10.5299 5.15625 10.0049C5.21807 9.79131 5.26994 9.72277 5.44922 9.59471C5.6814 9.51732 5.85039 9.5057 6.09375 9.53611C6.33276 9.70483 6.43331 9.89731 6.55273 10.1562C6.76606 10.5994 7.07172 10.8357 7.5293 11.0058C8.22584 11.2075 8.79906 11.0804 9.45313 10.7861C9.71577 10.5653 9.75561 10.4643 9.80469 10.1269C9.75706 9.78759 9.68091 9.63612 9.45313 9.37986C9.02144 9.10157 8.55218 8.98301 8.05664 8.87205C7.09365 8.6408 6.29566 8.42133 5.67078 7.59276C5.3871 7.10295 5.33335 6.51102 5.42786 5.95945C5.61544 5.2751 5.98369 4.78641 6.5625 4.37986C7.18933 4.06736 7.18933 4.06736 7.5 4.06736C7.49517 3.9723 7.49033 3.87723 7.48535 3.77928C7.48481 3.47498 7.54214 3.29573 7.73438 3.05174C7.97592 2.93097 8.17143 2.95068 8.4375 2.97361Z" fill="white"/>
</g>
<defs>
<clipPath id="clip0_172_277">
<rect width="40" height="40" fill="white" transform="translate(0 0.317352)"/>
</clipPath>
</defs>
</svg>
