<svg width="110" height="110" viewBox="0 0 110 110" fill="none" xmlns="http://www.w3.org/2000/svg">
<mask id="path-1-inside-1_154_647" fill="white">
<path d="M110 55C110 60.0148 109.314 65.006 107.962 69.8349L86.7769 63.901C87.5885 61.0036 88 58.0089 88 55H110Z"/>
</mask>
<path d="M110 55C110 60.0148 109.314 65.006 107.962 69.8349L86.7769 63.901C87.5885 61.0036 88 58.0089 88 55H110Z" fill="#DBA945" stroke="white" stroke-width="2" mask="url(#path-1-inside-1_154_647)"/>
<mask id="path-2-inside-2_154_647" fill="white">
<path d="M100.943 24.7636C107.973 35.4448 111.061 48.2416 109.677 60.9533C108.293 73.665 102.523 85.4973 93.3592 94.4154C84.1956 103.333 72.211 108.78 59.4664 109.818C46.7218 110.857 34.0136 107.422 23.5273 100.105L39.2636 77.5525C44.5068 81.211 50.8609 82.9284 57.2332 82.4092C63.6055 81.89 69.5978 79.1667 74.1796 74.7077C78.7614 70.2486 81.6464 64.3325 82.3384 57.9767C83.0305 51.6208 81.4863 45.2224 77.9715 39.8818L100.943 24.7636Z"/>
</mask>
<path d="M100.943 24.7636C107.973 35.4448 111.061 48.2416 109.677 60.9533C108.293 73.665 102.523 85.4973 93.3592 94.4154C84.1956 103.333 72.211 108.78 59.4664 109.818C46.7218 110.857 34.0136 107.422 23.5273 100.105L39.2636 77.5525C44.5068 81.211 50.8609 82.9284 57.2332 82.4092C63.6055 81.89 69.5978 79.1667 74.1796 74.7077C78.7614 70.2486 81.6464 64.3325 82.3384 57.9767C83.0305 51.6208 81.4863 45.2224 77.9715 39.8818L100.943 24.7636Z" fill="#6147AA" stroke="white" stroke-width="2" mask="url(#path-2-inside-2_154_647)"/>
<mask id="path-3-inside-3_154_647" fill="white">
<path d="M2.12583 70.1434C2.03061 69.8109 1.93853 69.4776 1.84959 69.1433L23.1098 63.486C23.1631 63.6865 23.2184 63.8866 23.2755 64.086L2.12583 70.1434Z"/>
</mask>
<path d="M2.12583 70.1434C2.03061 69.8109 1.93853 69.4776 1.84959 69.1433L23.1098 63.486C23.1631 63.6865 23.2184 63.8866 23.2755 64.086L2.12583 70.1434Z" fill="#D7D2AC" stroke="white" stroke-width="2" mask="url(#path-3-inside-3_154_647)"/>
<mask id="path-4-inside-4_154_647" fill="white">
<path d="M25.7731 101.592C18.8147 97.2267 12.9224 91.3586 8.52882 84.4182C4.13527 77.4778 1.35207 69.6414 0.383608 61.4846C-0.584852 53.3277 0.286023 45.0575 2.93228 37.2813C5.57853 29.5051 9.93297 22.4203 15.6758 16.5473C21.4186 10.6743 28.404 6.16224 36.119 3.3424C43.834 0.522557 52.0826 -0.533421 60.2591 0.252013C68.4356 1.03745 76.3324 3.64435 83.3694 7.88127C90.4065 12.1182 96.4053 17.8775 100.925 24.7364L77.9625 39.8682C75.7026 36.4388 72.7033 33.5591 69.1847 31.4406C65.6662 29.3222 61.7178 28.0187 57.6295 27.626C53.5413 27.2333 49.417 27.7613 45.5595 29.1712C41.702 30.5811 38.2093 32.8372 35.3379 35.7737C32.4665 38.7102 30.2893 42.2525 28.9661 46.1406C27.643 50.0288 27.2076 54.1639 27.6918 58.2423C28.176 62.3207 29.5676 66.2389 31.7644 69.7091C33.9612 73.1793 36.9073 76.1134 40.3865 78.2959L25.7731 101.592Z"/>
</mask>
<path d="M25.7731 101.592C18.8147 97.2267 12.9224 91.3586 8.52882 84.4182C4.13527 77.4778 1.35207 69.6414 0.383608 61.4846C-0.584852 53.3277 0.286023 45.0575 2.93228 37.2813C5.57853 29.5051 9.93297 22.4203 15.6758 16.5473C21.4186 10.6743 28.404 6.16224 36.119 3.3424C43.834 0.522557 52.0826 -0.533421 60.2591 0.252013C68.4356 1.03745 76.3324 3.64435 83.3694 7.88127C90.4065 12.1182 96.4053 17.8775 100.925 24.7364L77.9625 39.8682C75.7026 36.4388 72.7033 33.5591 69.1847 31.4406C65.6662 29.3222 61.7178 28.0187 57.6295 27.626C53.5413 27.2333 49.417 27.7613 45.5595 29.1712C41.702 30.5811 38.2093 32.8372 35.3379 35.7737C32.4665 38.7102 30.2893 42.2525 28.9661 46.1406C27.643 50.0288 27.2076 54.1639 27.6918 58.2423C28.176 62.3207 29.5676 66.2389 31.7644 69.7091C33.9612 73.1793 36.9073 76.1134 40.3865 78.2959L25.7731 101.592Z" fill="#D9C5E8" stroke="white" stroke-width="2" mask="url(#path-4-inside-4_154_647)"/>
</svg>
