<svg width="58" height="58" viewBox="0 0 58 58" fill="none" xmlns="http://www.w3.org/2000/svg">
<circle cx="28.6537" cy="28.6537" r="27.1537" fill="#D9D9D9" stroke="#6147AA" stroke-width="3"/>
<g clip-path="url(#clip0_154_249)">
<path d="M42.962 24.7928C42.9542 24.6517 42.8966 24.5179 42.7994 24.4153C42.7022 24.3127 42.5718 24.2479 42.4313 24.2324C42.2908 24.2169 42.1494 24.2518 42.0322 24.3308C41.915 24.4098 41.8297 24.5278 41.7914 24.6639C41.5526 25.4996 40.9735 25.9646 40.4828 25.6363C39.2957 23.9797 37.6839 22.6739 35.8171 21.8564C35.6729 21.7908 35.5086 21.7851 35.3603 21.8406C35.2119 21.8962 35.0917 22.0083 35.0261 22.1525C34.9605 22.2966 34.9548 22.461 35.0103 22.6093C35.0659 22.7576 35.178 22.8778 35.3222 22.9434C37.0221 23.683 38.4859 24.8758 39.5534 26.3914C39.5862 26.4413 39.6264 26.4858 39.6728 26.5234C39.8879 26.7005 40.1406 26.826 40.4117 26.8905C40.6828 26.955 40.965 26.9566 41.2368 26.8953C41.1083 27.0727 40.9362 27.214 40.7371 27.3054C40.5961 27.3643 40.4831 27.4752 40.4213 27.615C40.3596 27.7548 40.3538 27.913 40.4052 28.0569C40.6636 28.7746 40.7961 29.5316 40.7968 30.2943C40.762 31.4423 40.4669 32.5675 39.934 33.5849C39.401 34.6023 38.6441 35.4854 37.7201 36.1677C37.7046 36.1809 37.6891 36.1946 37.6742 36.2089C37.0948 36.7655 36.644 37.4419 36.3531 38.1908C36.0732 38.9107 35.9052 39.6693 35.8553 40.4401C35.8376 40.8895 35.852 41.3395 35.8982 41.7869H33.0448C33.2196 41.2602 33.2931 40.7052 33.2615 40.1512C33.2194 39.8019 33.1117 39.4636 32.9439 39.1543C32.8539 38.9803 32.7103 38.8399 32.5343 38.7539C32.3583 38.6679 32.1593 38.6409 31.9667 38.6767C30.7202 38.8929 29.4512 38.9492 28.1904 38.8445C28.0988 38.8374 28.0068 38.8513 27.9214 38.8852C27.8361 38.9192 27.7596 38.9722 27.6979 39.0403C27.329 39.4403 27.0487 39.9136 26.8753 40.4294C26.7511 40.8719 26.6794 41.3276 26.6616 41.7869H24.1639C24.2465 41.476 24.301 41.1583 24.3269 40.8377L24.3305 40.7673C24.3783 40.1243 24.2458 39.4807 23.9479 38.909C23.4977 38.0992 22.8309 37.4309 22.0221 36.979C21.8 36.8384 21.5871 36.6838 21.3845 36.5164C20.5428 35.7803 19.5985 34.9124 19.4444 34.7452C18.4221 33.6186 17.0373 32.8859 15.5308 32.6744V28.2957H15.8711C17.1599 28.2957 18.0165 28.0253 18.4899 27.4695C18.66 27.269 18.9561 26.869 19.1275 26.6171C19.4679 26.081 19.8665 25.5841 20.316 25.1355C20.372 25.0785 20.4161 25.0109 20.4455 24.9366C20.475 24.8623 20.4892 24.7829 20.4874 24.703C20.4855 24.6231 20.4677 24.5444 20.4348 24.4715C20.402 24.3987 20.3549 24.3331 20.2963 24.2788C20.0695 24.0672 19.8638 23.8341 19.682 23.5828C19.4373 23.2235 19.2424 22.8327 19.1024 22.4211C19.328 22.4313 19.5698 22.4486 19.7811 22.4808C20.5499 22.5792 21.2778 22.8836 21.8878 23.3619C21.9812 23.4429 22.0975 23.493 22.2206 23.505C22.3437 23.5171 22.4675 23.4907 22.5749 23.4294C23.3501 22.9836 24.1705 22.6216 25.0224 22.3495C25.1732 22.3014 25.2989 22.1954 25.3716 22.0547C25.4443 21.9141 25.4581 21.7503 25.4101 21.5994C25.362 21.4485 25.256 21.3229 25.1154 21.2502C24.9747 21.1775 24.8109 21.1636 24.66 21.2117C23.8552 21.4677 23.0758 21.7979 22.3319 22.1979C21.6151 21.7196 20.7983 21.4121 19.9441 21.2988C19.3921 21.2354 18.8366 21.2079 18.281 21.2165C18.1927 21.2183 18.106 21.2396 18.027 21.279C17.948 21.3184 17.8787 21.3748 17.8241 21.4442C17.7695 21.5135 17.731 21.5941 17.7113 21.6802C17.6917 21.7662 17.6913 21.8556 17.7103 21.9418C17.9032 22.777 18.2432 23.5711 18.7144 24.2872C18.8254 24.4394 18.9418 24.5857 19.063 24.7242C18.7178 25.1121 18.4053 25.528 18.1288 25.9676C17.9897 26.1718 17.7198 26.5359 17.5808 26.6995C17.4763 26.8218 17.1032 27.106 15.8711 27.106H15.2186C14.9852 27.1063 14.7614 27.1991 14.5961 27.364C14.4309 27.5289 14.3377 27.7525 14.3369 27.9859V32.7651C14.3364 33.0316 14.4337 33.2891 14.6104 33.4886C14.7871 33.6881 15.031 33.8158 15.2956 33.8474C16.5546 34.0061 17.7148 34.6115 18.5651 35.5535C18.7866 35.7923 19.8396 36.7516 20.5948 37.4112C20.8365 37.6151 21.0918 37.8024 21.3589 37.9717C21.9826 38.312 22.5042 38.8125 22.8698 39.4217C23.0834 39.8152 23.1766 40.2628 23.1378 40.7088L23.1342 40.787C23.0895 41.1499 23.0182 41.509 22.9211 41.8615C22.8894 41.995 22.8883 42.134 22.918 42.2681C22.9476 42.4021 23.0073 42.5277 23.0924 42.6354C23.1775 42.7431 23.2859 42.8301 23.4095 42.8899C23.533 42.9497 23.6685 42.9808 23.8058 42.9808H26.772C27.0397 42.9818 27.2979 42.8823 27.4957 42.702C27.6935 42.5217 27.8163 42.2737 27.84 42.0071C27.8586 41.607 27.9133 41.2094 28.0035 40.8192C28.0946 40.5448 28.2306 40.2874 28.4059 40.0575C29.5963 40.1331 30.7914 40.0758 31.9691 39.8868C32.0219 40.0083 32.0571 40.1367 32.0736 40.2682C32.0845 40.7189 32.0108 41.1676 31.8563 41.5911C31.8053 41.751 31.7929 41.9208 31.8199 42.0865C31.847 42.2522 31.9128 42.4091 32.012 42.5446C32.1112 42.68 32.241 42.7901 32.3908 42.8659C32.5406 42.9417 32.7062 42.9811 32.8741 42.9808H35.9681C36.123 42.9808 36.2763 42.949 36.4184 42.8872C36.5605 42.8254 36.6883 42.735 36.794 42.6217C36.8996 42.5083 36.9807 42.3744 37.0324 42.2283C37.084 42.0822 37.1049 41.9271 37.0939 41.7725C37.053 41.3608 37.0368 40.9469 37.0456 40.5333C37.0874 39.8667 37.2336 39.2108 37.479 38.5896C37.7054 38.0191 38.0515 37.5037 38.4938 37.0781C39.5512 36.2851 40.4151 35.2629 41.0208 34.0882C41.6264 32.9135 41.9581 31.6168 41.9907 30.2955C41.9903 29.5623 41.8864 28.8328 41.6821 28.1286C42.1453 27.7143 42.503 27.1956 42.7256 26.6155C42.9481 26.0354 43.0292 25.4105 42.962 24.7928Z" fill="black"/>
<path d="M30.4475 23.9165C31.3958 23.9165 32.3228 23.6353 33.1113 23.1084C33.8998 22.5816 34.5143 21.8327 34.8772 20.9566C35.2401 20.0805 35.3351 19.1164 35.1501 18.1863C34.9651 17.2563 34.5084 16.4019 33.8379 15.7314C33.1673 15.0608 32.313 14.6042 31.3829 14.4192C30.4528 14.2342 29.4888 14.3291 28.6126 14.692C27.7365 15.0549 26.9877 15.6695 26.4608 16.4579C25.934 17.2464 25.6528 18.1734 25.6528 19.1218C25.6542 20.393 26.1598 21.6117 27.0587 22.5106C27.9576 23.4094 29.1763 23.9151 30.4475 23.9165ZM30.4475 15.5209C31.1597 15.5209 31.8559 15.7321 32.448 16.1278C33.0402 16.5234 33.5017 17.0858 33.7742 17.7438C34.0468 18.4017 34.1181 19.1257 33.9791 19.8242C33.8402 20.5227 33.4972 21.1643 32.9937 21.6679C32.4901 22.1715 31.8485 22.5144 31.15 22.6534C30.4515 22.7923 29.7275 22.721 29.0695 22.4485C28.4116 22.1759 27.8492 21.7144 27.4535 21.1223C27.0579 20.5301 26.8467 19.8339 26.8467 19.1218C26.8478 18.1671 27.2275 17.2519 27.9026 16.5768C28.5776 15.9018 29.4928 15.522 30.4475 15.5209Z" fill="black"/>
<path d="M29.955 19.7187H30.8241C30.8909 19.7219 30.9539 19.7507 31.0001 19.7991C31.0462 19.8475 31.072 19.9118 31.072 19.9787C31.072 20.0455 31.0462 20.1099 31.0001 20.1583C30.9539 20.2067 30.8909 20.2354 30.8241 20.2387H29.955C29.9151 20.2388 29.8756 20.2298 29.8398 20.2122C29.804 20.1946 29.7727 20.1689 29.7484 20.1372C29.7016 20.0726 29.6424 20.0181 29.5742 19.9769C29.506 19.9356 29.4302 19.9084 29.3513 19.8969C29.2724 19.8854 29.192 19.8898 29.1149 19.9099C29.0377 19.93 28.9654 19.9653 28.9021 20.0138C28.8388 20.0623 28.7859 20.1229 28.7465 20.1922C28.707 20.2615 28.6818 20.3379 28.6724 20.4171C28.663 20.4963 28.6695 20.5765 28.6916 20.6531C28.7137 20.7297 28.7509 20.8011 28.8011 20.8631C28.9201 21.0176 29.0695 21.1461 29.24 21.2409C29.4105 21.3356 29.5985 21.3945 29.7926 21.4141V21.8486C29.7926 22.007 29.8555 22.1588 29.9675 22.2707C30.0794 22.3827 30.2312 22.4456 30.3896 22.4456C30.5479 22.4456 30.6997 22.3827 30.8117 22.2707C30.9236 22.1588 30.9865 22.007 30.9865 21.8486V21.4194C31.3561 21.3796 31.6963 21.1994 31.9368 20.916C32.1773 20.6326 32.2998 20.2676 32.2789 19.8965C32.2581 19.5253 32.0955 19.1764 31.8248 18.9217C31.5541 18.667 31.1958 18.526 30.8241 18.5278H29.955C29.8882 18.5246 29.8252 18.4958 29.779 18.4474C29.7329 18.399 29.7072 18.3347 29.7072 18.2678C29.7072 18.2009 29.7329 18.1366 29.779 18.0882C29.8252 18.0398 29.8882 18.011 29.955 18.0078H30.8241C30.8651 18.0079 30.9055 18.0175 30.942 18.0361C30.9785 18.0547 31.0101 18.0816 31.0343 18.1147C31.1286 18.2423 31.2698 18.3272 31.4268 18.3507C31.5837 18.3742 31.7436 18.3344 31.8712 18.2401C31.9988 18.1457 32.0837 18.0045 32.1072 17.8476C32.1307 17.6906 32.0909 17.5307 31.9966 17.4031C31.8768 17.2435 31.7254 17.1103 31.5518 17.0118C31.3782 16.9133 31.1862 16.8516 30.9877 16.8306V16.3979C30.9877 16.2395 30.9248 16.0877 30.8129 15.9757C30.7009 15.8638 30.5491 15.8009 30.3908 15.8009C30.2324 15.8009 30.0806 15.8638 29.9686 15.9757C29.8567 16.0877 29.7938 16.2395 29.7938 16.3979V16.8277C29.4253 16.8688 29.0866 17.0495 28.8473 17.3327C28.608 17.6158 28.4862 17.9799 28.507 18.35C28.5278 18.7202 28.6895 19.0683 28.9591 19.3229C29.2286 19.5774 29.5854 19.7191 29.9562 19.7187H29.955ZM20.4085 26.5819V27.423C20.4085 27.5813 20.4714 27.7331 20.5834 27.8451C20.6953 27.957 20.8471 28.0199 21.0055 28.0199C21.1638 28.0199 21.3156 27.957 21.4276 27.8451C21.5395 27.7331 21.6024 27.5813 21.6024 27.423V26.5819C21.6024 26.4235 21.5395 26.2717 21.4276 26.1598C21.3156 26.0478 21.1638 25.9849 21.0055 25.9849C20.8471 25.9849 20.6953 26.0478 20.5834 26.1598C20.4714 26.2717 20.4085 26.4235 20.4085 26.5819Z" fill="black"/>
</g>
<defs>
<clipPath id="clip0_154_249">
<rect width="28.6537" height="28.6537" fill="white" transform="translate(14.3268 14.327)"/>
</clipPath>
</defs>
</svg>
